<?xml version="1.0" encoding="UTF-8"?><svg id="Layer_1" xmlns="http://www.w3.org/2000/svg" viewBox="0 0 157 30"><defs><style>.cls-1{fill:#005dff;}</style></defs><g><path class="cls-1" d="M9.73,26.69c-3.23,.98-5.81,.96-6.55-.07-.75-1.03,.02-3.5,1.96-6.3,.77-1.12,1.73-2.28,2.83-3.47l-2.08-1.54c-1.1,1.21-2.07,2.4-2.86,3.54C-.49,23.9,.03,26.68,1.09,28.13c.9,1.24,2.42,1.87,4.51,1.87,1.39,0,3.05-.29,4.92-.86,.49-.15,1.04-.34,1.67-.57l-2.46-1.88Z"/><path class="cls-1" d="M37.14,1.84c-1.91-2.61-6.73-2.44-13.25,.46l.78,2.45c1.33-.6,2.61-1.09,3.8-1.46,1.57-.48,3.01-.74,4.16-.74,1.21,0,2.05,.28,2.43,.8,.75,1.03-.02,3.5-1.96,6.29-1.46,2.11-3.54,4.39-6,6.59-.64,.57-1.31,1.14-1.97,1.68l-.08,.07,2.6,8-6.77-4.92-.09,.06c-.72,.49-1.45,.95-2.16,1.39-1.76,1.07-3.5,2-5.19,2.75l2.49-7.65-7.01-5.09h8.67l2.68-8.24,2.68,8.24h5.95c1.13-1.11,2.27-2.71,2.27-2.71h-6.25l-2.25-6.93h-4.79l-2.25,6.93h-7.29l-1.48,4.55,5.9,4.28-2.25,6.93,3.25,2.36,.08-.03c2.22-.95,4.52-2.17,6.86-3.64l5.85,4.25,3.87-2.81-2.27-6.97c6.04-5.25,11.99-12.8,9-16.9Z"/></g><g><path class="cls-1" d="M49.24,15.6c-2.54-.65-3.23-.98-3.23-2.01v-.04c0-.83,.77-1.36,1.97-1.36s2.41,.46,3.81,1.42l1.6-2.32c-1.52-1.2-3.32-1.81-5.36-1.81-2.99,0-5.08,1.79-5.08,4.36v.04c0,2.97,2,3.7,4.82,4.43,2.37,.61,3.02,1.03,3.02,1.95v.04c0,.9-.84,1.47-2.2,1.47-1.52,0-2.91-.56-4.38-1.76l-1.82,2.18c1.68,1.47,3.86,2.29,6.14,2.29,3.29,0,5.33-1.72,5.33-4.49v-.04c0-2.61-1.76-3.6-4.61-4.34Z"/><polygon class="cls-1" points="60.46 24.26 63.54 24.26 63.54 12.52 68.02 12.52 68.02 9.69 55.98 9.69 55.98 12.52 60.46 12.52 60.46 24.26"/><path class="cls-1" d="M109.08,21.68c-2.48,0-4.35-2.02-4.35-4.7v-.04c0-2.66,1.87-4.66,4.35-4.66,1.34,0,2.5,.5,3.76,1.63l1.96-2.26c-1.59-1.54-3.29-2.2-5.7-2.2-4.33,0-7.6,3.24-7.6,7.54v.04c0,4.27,3.21,7.49,7.47,7.49,2.49,0,4.22-.74,5.93-2.55l-1.96-1.98c-1.19,1.07-2.22,1.69-3.87,1.69Z"/><path class="cls-1" d="M124.9,9.44c-4.36,0-7.77,3.31-7.77,7.54v.04c0,4.27,3.32,7.49,7.72,7.49s7.77-3.31,7.77-7.54v-.04c0-4.27-3.32-7.49-7.72-7.49Zm4.49,7.58c0,2.66-1.93,4.66-4.49,4.66s-4.54-2.07-4.54-4.7v-.04c0-2.66,1.93-4.66,4.49-4.66s4.54,2.07,4.54,4.7v.04Z"/><rect class="cls-1" x="136.33" y="9.69" width="3.08" height="14.57"/><polygon class="cls-1" points="143.77 9.69 143.77 24.26 146.82 24.26 146.82 14.75 154.06 24.26 156.7 24.26 156.7 9.69 153.66 9.69 153.66 18.91 146.64 9.69 143.77 9.69"/><polygon class="cls-1" points="74.31 9.59 68.07 24.26 71.2 24.26 75.71 13.2 77.74 18.15 78.89 21.01 80.22 24.26 83.44 24.26 77.19 9.59 74.31 9.59"/><path class="cls-1" d="M95.45,19.01c2-.74,3.1-2.34,3.1-4.49v-.04c0-2.99-2.05-4.78-5.47-4.78h-6.65v2.77h6.38c1.67,0,2.62,.79,2.62,2.18v.04c0,1.33-.98,2.16-2.56,2.16h-6.44v7.42h3.08v-4.71h2.66l.02,.03,3.13,4.68h3.6l-3.57-5.22,.09-.03Z"/></g></svg>