<?xml version="1.0" encoding="utf-8"?>
<!-- Generator: Adobe Illustrator 26.0.2, SVG Export Plug-In . SVG Version: 6.00 Build 0)  -->
<svg version="1.1" id="图层_1" xmlns="http://www.w3.org/2000/svg" xmlns:xlink="http://www.w3.org/1999/xlink" x="0px" y="0px"
	 viewBox="0 0 38.34 38" style="enable-background:new 0 0 38.34 38;" xml:space="preserve">
<style type="text/css">
	.st0{fill:url(#SVGID_1_);}
	.st1{fill:url(#SVGID_00000058573997141840348020000005773999074573020597_);}
	.st2{fill:url(#SVGID_00000038388625018876119450000010328401008317295499_);}
</style>
<g>
	<linearGradient id="SVGID_1_" gradientUnits="userSpaceOnUse" x1="3.3787" y1="3.096" x2="34.848" y2="34.3305">
		<stop  offset="0" style="stop-color:#3DFFE8"/>
		<stop  offset="0.0535" style="stop-color:#37E7D7"/>
		<stop  offset="0.1844" style="stop-color:#29B1B2"/>
		<stop  offset="0.3168" style="stop-color:#1E8392"/>
		<stop  offset="0.4482" style="stop-color:#145E78"/>
		<stop  offset="0.5783" style="stop-color:#0D4164"/>
		<stop  offset="0.7068" style="stop-color:#072C56"/>
		<stop  offset="0.833" style="stop-color:#041F4D"/>
		<stop  offset="0.9542" style="stop-color:#031B4A"/>
	</linearGradient>
	<circle class="st0" cx="19.13" cy="18.73" r="18.61"/>
	<g>
		
			<linearGradient id="SVGID_00000170982484929970784330000018112372255526625420_" gradientUnits="userSpaceOnUse" x1="3.9732" y1="5.9859" x2="37.2401" y2="34.3805">
			<stop  offset="5.166997e-04" style="stop-color:#3DFFE8"/>
			<stop  offset="0.1394" style="stop-color:#3BFBE5"/>
			<stop  offset="0.2872" style="stop-color:#37EEDC"/>
			<stop  offset="0.4392" style="stop-color:#2FD9CC"/>
			<stop  offset="0.5941" style="stop-color:#23BBB7"/>
			<stop  offset="0.7513" style="stop-color:#15949B"/>
			<stop  offset="0.9081" style="stop-color:#04667A"/>
			<stop  offset="0.9392" style="stop-color:#005C73"/>
		</linearGradient>
		<path style="fill:url(#SVGID_00000170982484929970784330000018112372255526625420_);" d="M37.59,22.81
			c-2.79,12.43-16.02,18.27-26.71,13.04c-5.13-2.51-8.62-7.04-9.95-12.17c-0.84-3.22-0.83-6.68,0.14-10.01
			c0.18-0.73,0.43-1.46,0.75-2.17c0.07-0.15,0.14-0.3,0.21-0.44c0.11-0.21,0.21-0.43,0.33-0.63c3.41-6.14,11.07-8.6,17.46-5.48
			c4.5,2.2,7.42,6.4,7.45,11.28c0,0,0,0,0,0c-0.26,3.66-1.83,5.42-3.08,5.17c-1.01-0.2-1.33-1.05-1.42-1.37c0,0,0,0,0,0
			c-0.01-0.04-0.02-0.07-0.02-0.09c0-0.01,0-0.02,0-0.02c0,0,0,0,0,0c-0.1-0.8-0.39-1.57-0.83-2.24c-0.42-0.63-0.99-1.17-1.68-1.58
			c-0.05-0.03-0.09-0.05-0.14-0.08c-2.53-1.37-5.74-0.39-7.06,2.17c-0.15,0.29-0.36,0.89-0.36,0.89c-0.2,0.66-0.26,1.34-0.19,2
			l0.17,0.87c0.41,1.71,1.73,5.53,5.66,7.53h0c5.18,2.64,12.01,1.12,14.61-6.61c0-0.01,0.01-0.02,0.01-0.03
			c2.45-7.84-1.12-16.51-8.73-20.22c-2.27-1.11-4.66-1.66-7.02-1.72h-0.03c-1.9-0.04-3.78,0.24-5.57,0.82
			c-0.01,0.01-0.02-0.02-0.01-0.02c3.32-1.45,7.04-1.94,10.7-1.32c3.16,0.53,6.27,1.9,9.05,4.19C36.68,8.98,39.1,16.06,37.59,22.81z
			"/>
		
			<linearGradient id="SVGID_00000013882102433101990450000002086530153650642865_" gradientUnits="userSpaceOnUse" x1="35.0014" y1="16.7736" x2="9.4085" y2="16.7736">
			<stop  offset="0" style="stop-color:#3DFFE8"/>
			<stop  offset="0.153" style="stop-color:#2DD8CC"/>
			<stop  offset="0.3233" style="stop-color:#1FB3B3"/>
			<stop  offset="0.4946" style="stop-color:#14979F"/>
			<stop  offset="0.6649" style="stop-color:#0B8290"/>
			<stop  offset="0.8339" style="stop-color:#077688"/>
			<stop  offset="1" style="stop-color:#057285"/>
		</linearGradient>
		<path style="fill:url(#SVGID_00000013882102433101990450000002086530153650642865_);" d="M10.6,25.94
			c-3.13-5.58,0.13-13.52,6.83-12.8c4.73,0.51,5.27,5.67,5.33,6.9c-0.01-0.04-0.02-0.07-0.02-0.09c0-0.01,0-0.02,0-0.02c0,0,0,0,0,0
			c-0.1-0.8-0.39-1.57-0.83-2.24c-0.42-0.63-0.99-1.17-1.68-1.58c-0.05-0.03-0.09-0.05-0.14-0.08c-2.53-1.37-5.74-0.39-7.06,2.17
			c-0.15,0.29-0.36,0.89-0.36,0.89c-0.2,0.66-0.26,1.34-0.19,2l0.17,0.87c0.41,1.71,1.73,5.53,5.66,7.53h0
			c5.18,2.64,12.01,1.12,14.61-6.61c0-0.01,0.01-0.02,0.01-0.03c2.45-7.84-1.12-16.51-8.73-20.22c-2.27-1.11-4.66-1.66-7.02-1.72
			c8.06-0.05,16.65,6.22,17.69,15.31c0.71,6.17-1.81,13.25-7.89,15.77C24.12,33.19,14.84,33.49,10.6,25.94z"/>
	</g>
</g>
</svg>
