<svg id="fi_3600950" enable-background="new 0 0 512 512" height="512" viewBox="0 0 512 512" width="512" xmlns="http://www.w3.org/2000/svg"><g><g><circle cx="256" cy="256" fill="#f33" r="256"></circle></g><path d="m267.612 345.203-48.519-47.519-27.73 71.45 134.892 133.103c85.944-24.475 153.427-92.735 176.836-179.123l-174.666-175.796c-139.931-23.843-134.188 110.8-134.188 110.8l87.645 86.94c-3.198 1.378-9.03 1.595-14.27.145z" fill="#c60000"></path><g><path d="m257.279 395.62c-15.128.001-30.268-3.688-44.177-11.086l-.87-.463c-31.542-16.777-51.14-49.332-51.139-84.955v-1.433h58v1.434c-.001 14.131 7.811 27.063 20.384 33.751l.87.463c11.003 5.853 24.032 5.643 34.846-.56l1.245-.714c7.31-4.192 11.847-12.025 11.847-20.446 0-10.695-7.211-20.049-17.545-22.775l-39.215-9.919c-21.13-5.345-38.996-18.548-50.308-37.179s-14.783-40.574-9.777-61.787c8.835-37.431 41.864-63.572 80.322-63.572h6.114c20.862 0 40.719 6.608 57.421 19.109 16.703 12.502 28.641 29.69 34.521 49.707l1.087 3.698-55.648 16.351-1.087-3.699c-4.698-15.995-19.623-27.166-36.294-27.166h-6.114c-11.431 0-21.247 7.77-23.873 18.895-3.058 12.954 4.954 26.149 17.858 29.413l39.521 9.997c35.925 9.349 61.016 41.805 61.016 78.927 0 29.144-15.705 56.256-40.985 70.755l-1.244.714c-14.56 8.352-30.66 12.54-46.776 12.54z" fill="#f8fffb"></path></g><g fill="#d8d8d8"><path d="m346.29 311.61c0 29.15-15.71 56.26-40.99 70.76l-1.24.71c-14.56 8.35-30.67 12.54-46.78 12.54-.43 0-.85 0-1.28-.01v-58.07c6.6.25 13.23-1.35 19.19-4.77l1.25-.71c7.31-4.2 11.85-12.03 11.85-20.45 0-10.69-7.22-20.05-17.55-22.77l-14.74-3.73v-59.83l29.27 7.4c35.92 9.35 61.02 41.81 61.02 78.93z"></path><path d="m257.88 174.38h-1.88v-58h1.88c20.86 0 40.72 6.61 57.42 19.11s28.64 29.69 34.52 49.71l1.09 3.69-55.65 16.35-1.09-3.69c-4.7-16-19.62-27.17-36.29-27.17z"></path></g></g></svg>