<?xml version="1.0" encoding="utf-8"?>
<!-- Generator: Adobe Illustrator 26.0.2, SVG Export Plug-In . SVG Version: 6.00 Build 0)  -->
<svg version="1.1" id="Layer_1" xmlns="http://www.w3.org/2000/svg" xmlns:xlink="http://www.w3.org/1999/xlink" x="0px" y="0px"
	 viewBox="0 0 108.28 26.97" style="enable-background:new 0 0 108.28 26.97;" xml:space="preserve">
<style type="text/css">
	.st0{fill:#031B4A;}
	.st1{fill:url(#SVGID_1_);}
	.st2{fill:url(#SVGID_00000181780042971870444470000013994700699591284382_);}
	.st3{fill:url(#SVGID_00000005237388268340386080000002514570104307905713_);}
</style>
<g>
	<g>
		<path class="st0" d="M35.43,11.21c0,0.68,0,1.52,2.55,1.7c3.58,0.26,5.11,1.43,5.11,3.9c0,2.28-1.5,3.46-4.45,3.51
			c-0.06,0-0.12,0-0.18,0c-3.2,0-5.31-1.4-5.4-1.46l0.98-1.46c0.02,0.01,1.85,1.21,4.57,1.16c2.51-0.04,2.72-0.89,2.72-1.75
			c0-0.84,0-1.89-3.48-2.14c-1.79-0.13-4.18-0.63-4.18-3.45c0-2.32,1.69-3.76,4.4-3.76c3.23,0,5.12,1.23,5.47,1.48l-1.02,1.43
			c-0.17-0.12-1.7-1.15-4.45-1.15C36.86,9.21,35.43,9.55,35.43,11.21z"/>
		<path class="st0" d="M46.5,13.06v4.53c0,0.47,0.39,0.86,0.86,0.86h1.58v1.72h-1.58c-1.42,0-2.58-1.16-2.58-2.58V7.5h1.72v3.84
			h2.44v1.72H46.5z"/>
		<path class="st0" d="M58.5,14.76v2.74c0,1.45-1.18,2.63-2.63,2.63h-2.68c-1.52,0-2.76-1.24-2.76-2.76s1.24-2.76,2.76-2.76h3.59
			c-0.04-0.56-0.3-1.22-1.61-1.66c-0.47-0.16-0.96-0.17-1.44-0.02l-2.55,0.77l-0.5-1.65l2.55-0.77c0.81-0.25,1.67-0.23,2.48,0.04
			C58.01,12.08,58.5,13.61,58.5,14.76z M56.78,16.32h-3.59c-0.58,0-1.04,0.47-1.04,1.04s0.47,1.04,1.04,1.04h2.68
			c0.5,0,0.91-0.41,0.91-0.91V16.32z"/>
		<path class="st0" d="M63.26,11.47h2.42v1.72h-2.42c-0.55,0-1,0.45-1,1v5.99h-1.72V14.2C60.53,12.7,61.75,11.47,63.26,11.47z"/>
		<path class="st0" d="M78.3,14.17v5.97h-1.72v-5.97c0-0.59-0.38-1.11-0.94-1.3l-0.27-0.09c-0.3-0.1-0.64-0.09-0.93,0.03
			c-0.53,0.21-0.87,0.71-0.87,1.28v6.06h-1.72v-6.06c0-0.31,0.05-0.6,0.13-0.88l-1-0.39c-0.3-0.12-0.63-0.13-0.93-0.03l-0.27,0.09
			c-0.56,0.19-0.94,0.71-0.94,1.3v5.97h-1.72v-5.97c0-1.33,0.85-2.51,2.11-2.93l0.27-0.09c0.68-0.23,1.43-0.21,2.1,0.06l1.33,0.52
			c0.26-0.22,0.55-0.39,0.87-0.52c0.67-0.26,1.42-0.28,2.1-0.06l0.27,0.09C77.45,11.66,78.3,12.84,78.3,14.17z"/>
		<path class="st0" d="M88.26,14.76v2.74c0,1.45-1.18,2.63-2.63,2.63h-2.68c-1.52,0-2.76-1.24-2.76-2.76s1.24-2.76,2.76-2.76h3.59
			c-0.04-0.56-0.3-1.22-1.61-1.66c-0.47-0.16-0.96-0.17-1.44-0.02l-2.55,0.77l-0.5-1.65l2.55-0.77c0.81-0.25,1.67-0.23,2.48,0.04
			C87.77,12.08,88.26,13.61,88.26,14.76z M86.54,16.32h-3.59c-0.58,0-1.04,0.47-1.04,1.04s0.47,1.04,1.04,1.04h2.68
			c0.5,0,0.91-0.41,0.91-0.91V16.32z"/>
		<path class="st0" d="M93.57,14.83c1.83,0.12,3.92,0.57,3.92,2.9c0,1.18-0.6,2.59-3.45,2.64c-0.04,0-0.09,0-0.14,0
			c-2.38,0-3.96-0.98-4.03-1.02l0.91-1.46c0.01,0.01,1.3,0.78,3.22,0.76c1.76-0.03,1.76-0.57,1.76-0.92c0-0.48,0-1.03-2.32-1.19
			c-0.8-0.05-3.25-0.22-3.25-2.6c0-1.71,1.34-2.81,3.42-2.81c2.4,0,3.82,0.86,4.08,1.03l-0.95,1.43c-0.42-0.28-1.55-0.75-3.13-0.75
			c-0.77,0-1.7,0.19-1.7,1.09C91.93,14.28,91.93,14.71,93.57,14.83L93.57,14.83z"/>
		<path class="st0" d="M107.22,19.1l0.58,1.04h-1.97l-2.26-4.01c-0.39,0.19-0.83,0.3-1.27,0.3c-0.35,0-0.68-0.07-0.98-0.19v3.89
			H99.6V7.5h1.72v6.23c0,0.54,0.44,0.98,0.98,0.98c0.34,0,0.67-0.15,0.89-0.41l2.5-2.93h2.26l-0.66,0.77l-2.4,2.81L107.22,19.1z"/>
	</g>
	<g>
		<linearGradient id="SVGID_1_" gradientUnits="userSpaceOnUse" x1="2.3127" y1="2.2267" x2="24.5296" y2="24.2778">
			<stop  offset="0" style="stop-color:#3DFFE8"/>
			<stop  offset="0.0535" style="stop-color:#37E7D7"/>
			<stop  offset="0.1844" style="stop-color:#29B1B2"/>
			<stop  offset="0.3168" style="stop-color:#1E8392"/>
			<stop  offset="0.4482" style="stop-color:#145E78"/>
			<stop  offset="0.5783" style="stop-color:#0D4164"/>
			<stop  offset="0.7068" style="stop-color:#072C56"/>
			<stop  offset="0.833" style="stop-color:#041F4D"/>
			<stop  offset="0.9542" style="stop-color:#031B4A"/>
		</linearGradient>
		<circle class="st1" cx="13.43" cy="13.26" r="13.14"/>
		<g>
			
				<linearGradient id="SVGID_00000089554984107366459500000000471026737104359102_" gradientUnits="userSpaceOnUse" x1="2.7324" y1="4.2669" x2="26.2183" y2="24.3131">
				<stop  offset="5.166997e-04" style="stop-color:#3DFFE8"/>
				<stop  offset="0.1394" style="stop-color:#3BFBE5"/>
				<stop  offset="0.2872" style="stop-color:#37EEDC"/>
				<stop  offset="0.4392" style="stop-color:#2FD9CC"/>
				<stop  offset="0.5941" style="stop-color:#23BBB7"/>
				<stop  offset="0.7513" style="stop-color:#15949B"/>
				<stop  offset="0.9081" style="stop-color:#04667A"/>
				<stop  offset="0.9392" style="stop-color:#005C73"/>
			</linearGradient>
			<path style="fill:url(#SVGID_00000089554984107366459500000000471026737104359102_);" d="M26.46,16.15
				c-1.97,8.78-11.31,12.9-18.86,9.21c-3.62-1.77-6.08-4.97-7.03-8.59c-0.59-2.27-0.59-4.71,0.1-7.07c0.13-0.52,0.31-1.03,0.53-1.53
				c0.05-0.1,0.1-0.21,0.15-0.31C1.43,7.7,1.5,7.55,1.59,7.41C4,3.07,9.41,1.33,13.92,3.54c3.18,1.55,5.24,4.52,5.26,7.96
				c0,0,0,0,0,0c-0.18,2.58-1.29,3.83-2.18,3.65c-0.72-0.14-0.94-0.74-1-0.97c0,0,0,0,0,0c-0.01-0.03-0.01-0.05-0.02-0.06
				c0-0.01,0-0.01,0-0.01c0,0,0,0,0,0c-0.07-0.56-0.27-1.11-0.59-1.58c-0.3-0.44-0.7-0.83-1.18-1.11c-0.03-0.02-0.07-0.04-0.1-0.06
				c-1.78-0.97-4.05-0.27-4.98,1.53c-0.1,0.2-0.25,0.63-0.25,0.63c-0.14,0.47-0.18,0.95-0.13,1.41l0.12,0.61
				c0.29,1.21,1.22,3.9,4,5.32h0c3.65,1.86,8.48,0.79,10.32-4.66c0-0.01,0-0.01,0.01-0.02c1.73-5.54-0.79-11.65-6.16-14.28
				c-1.6-0.78-3.29-1.17-4.96-1.21h-0.02C10.7,0.65,9.37,0.85,8.11,1.26c-0.01,0-0.02-0.01-0.01-0.02c2.34-1.02,4.97-1.37,7.55-0.93
				c2.23,0.38,4.43,1.34,6.39,2.96C25.82,6.38,27.53,11.38,26.46,16.15z"/>
			
				<linearGradient id="SVGID_00000040557319535202344240000016133987969174987413_" gradientUnits="userSpaceOnUse" x1="24.6378" y1="11.8829" x2="6.5696" y2="11.8829">
				<stop  offset="0" style="stop-color:#3DFFE8"/>
				<stop  offset="0.153" style="stop-color:#2DD8CC"/>
				<stop  offset="0.3233" style="stop-color:#1FB3B3"/>
				<stop  offset="0.4946" style="stop-color:#14979F"/>
				<stop  offset="0.6649" style="stop-color:#0B8290"/>
				<stop  offset="0.8339" style="stop-color:#077688"/>
				<stop  offset="1" style="stop-color:#057285"/>
			</linearGradient>
			<path style="fill:url(#SVGID_00000040557319535202344240000016133987969174987413_);" d="M7.41,18.35
				c-2.21-3.94,0.09-9.55,4.82-9.04c3.34,0.36,3.72,4,3.77,4.87c-0.01-0.03-0.01-0.05-0.02-0.06c0-0.01,0-0.01,0-0.01c0,0,0,0,0,0
				c-0.07-0.56-0.27-1.11-0.59-1.58c-0.3-0.44-0.7-0.83-1.18-1.11c-0.03-0.02-0.07-0.04-0.1-0.06c-1.78-0.97-4.05-0.27-4.98,1.53
				c-0.1,0.2-0.25,0.63-0.25,0.63c-0.14,0.47-0.18,0.95-0.13,1.41l0.12,0.61c0.29,1.21,1.22,3.9,4,5.32h0
				c3.65,1.86,8.48,0.79,10.32-4.66c0-0.01,0-0.01,0.01-0.02c1.73-5.54-0.79-11.65-6.16-14.28c-1.6-0.78-3.29-1.17-4.96-1.21
				c5.69-0.03,11.76,4.39,12.49,10.81c0.5,4.36-1.27,9.35-5.57,11.14C16.95,23.47,10.4,23.69,7.41,18.35z"/>
		</g>
	</g>
</g>
</svg>
