<?xml version="1.0" encoding="UTF-8"?><svg id="Layer_1" xmlns="http://www.w3.org/2000/svg" viewBox="0 0 500 500"><defs><style>.cls-1{fill:#005dff;}.cls-2{fill:#fff;}</style></defs><circle class="cls-1" cx="250" cy="250" r="250"/><g><path class="cls-2" d="M170.36,349.11c-27.43,8.34-49.23,8.11-55.58-.6-6.37-8.74,.14-29.69,16.6-53.38,6.57-9.46,14.64-19.36,23.96-29.44l-17.65-13.03c-9.35,10.25-17.52,20.35-24.24,30.02-29.72,42.77-25.27,66.41-16.31,78.7,7.66,10.5,20.51,15.82,38.2,15.82,11.82,0,25.86-2.46,41.72-7.3,4.15-1.27,8.79-2.87,14.14-4.87l-20.84-15.92Z"/><path class="cls-2" d="M402.81,138.45c-16.17-22.17-57.09-20.7-112.37,3.93l6.62,20.8c11.27-5.1,22.1-9.28,32.21-12.37,13.35-4.08,25.56-6.24,35.31-6.24,10.26,0,17.38,2.33,20.59,6.74,6.37,8.74-.14,29.69-16.6,53.38-12.42,17.88-30.03,37.19-50.92,55.86-5.45,4.87-11.07,9.66-16.71,14.24l-.7,.57,22.05,67.87-57.4-41.71-.76,.51c-6.14,4.13-12.31,8.09-18.33,11.76-14.89,9.08-29.68,16.92-44,23.33l21.09-64.89-59.46-43.2h73.5l22.71-69.9,22.71,69.9h50.45c9.58-9.43,19.26-22.97,19.26-22.97h-53.02l-19.1-58.78h-40.6l-19.1,58.78h-61.81l-12.55,38.62,50,36.33-19.1,58.78,27.6,20.05,.69-.29c18.81-8.04,38.37-18.42,58.14-30.87l49.63,36.06,32.85-23.87-19.21-59.12c51.19-44.54,101.67-108.56,76.33-143.31Z"/></g></svg>