<svg version="1.2" xmlns="http://www.w3.org/2000/svg" viewBox="0 0 48 38" width="48" height="38"><style>.a{fill:#005dff}</style><path class="a" d="m15.4 36.1q-1.2 0.5-2.1 0.8c-2.4 0.7-4.5 1-6.2 1-2.7 0-4.6-0.7-5.7-2.3-1.4-1.8-2-5.4 2.4-11.7 1-1.5 2.3-3 3.6-4.5l2.7 1.9c-1.4 1.5-2.6 3-3.6 4.4-2.5 3.6-3.4 6.7-2.5 8 1 1.3 4.2 1.3 8.3 0.1z"/><path class="a" d="m46.9 2.4c3.8 5.1-3.7 14.7-11.3 21.3l2.8 8.8-4.9 3.6-7.4-5.4q-4.4 2.8-8.6 4.6h-0.1l-4.1-2.9 2.8-8.8-7.4-5.4 1.8-5.8h9.2l2.9-8.7h6l2.9 8.7h7.9c0 0-1.5 2.1-2.9 3.5h-7.5l-3.4-10.4-3.4 10.4h-10.9l8.8 6.4-3.1 9.7q3.2-1.5 6.5-3.5 1.4-0.8 2.8-1.8h0.1l8.5 6.2-3.3-10.1 0.1-0.1q1.3-1.1 2.5-2.1c3.1-2.8 5.8-5.7 7.6-8.4 2.5-3.5 3.4-6.6 2.5-7.9-0.5-0.7-1.6-1-3.1-1-1.4 0-3.3 0.3-5.2 0.9q-2.3 0.7-4.8 1.9l-1-3.1c8.2-3.7 14.3-3.9 16.7-0.6z"/></svg>