<?xml version="1.0" encoding="utf-8"?>
<!-- Generator: Adobe Illustrator 24.0.1, SVG Export Plug-In . SVG Version: 6.00 Build 0)  -->
<svg version="1.1" id="Layer_1" xmlns="http://www.w3.org/2000/svg" xmlns:xlink="http://www.w3.org/1999/xlink" x="0px" y="0px"
	 viewBox="0 0 500 500" style="enable-background:new 0 0 500 500;" xml:space="preserve">
<style type="text/css">
	.st0{fill:none;}
	.st1{fill:url(#SVGID_1_);}
	.st2{fill:#FFFFFF;}
</style>
<title>starcoin_product_logo_concept_3_blue_a</title>
<rect class="st0" width="500" height="500"/>
<linearGradient id="SVGID_1_" gradientUnits="userSpaceOnUse" x1="0" y1="252" x2="500" y2="252" gradientTransform="matrix(1 0 0 -1 0 502)">
	<stop  offset="0" style="stop-color:#265AE3"/>
	<stop  offset="1" style="stop-color:#082989"/>
</linearGradient>
<circle class="st1" cx="250" cy="250" r="250"/>
<g>
	<path class="st2" d="M379.7,156.2c23.2,35.1-37.3,116-135.1,180.7c-63.4,42-127,66.9-170.1,69.6c42.6,5.2,119.2-21.9,196-72.8
		c101.2-67,164.4-149.7,141.1-184.7c-12.1-18.2-45.1-20-88.3-8.1C350.4,137.9,370.7,142.6,379.7,156.2z"/>
	<g>
		<path class="st2" d="M275.1,150.6c56.7-34.4,111.7-54.7,150.4-57.1c-35-4.3-92.9,13.3-155,47.8L275.1,150.6z"/>
		<path class="st2" d="M188.1,215.8c17.4-16,37.4-32,59.6-47.2l2.6-15.3c-6.4,3.9-12.9,8-19.3,12.3c-26.5,17.5-50.4,36.1-70.8,54.7
			L188.1,215.8z"/>
		<path class="st2" d="M121.6,343.1c-15-22.6,4.9-64.2,47-108.3l-15.8-7.8c-52.8,50-79.5,98.5-63.1,123.3
			c12.1,18.2,45.1,20,88.3,8.1C150.9,361.4,130.6,356.7,121.6,343.1z"/>
	</g>
	<path class="st2" d="M226.2,336.2c3.3-2.1,6.6-4.2,9.9-6.4c69.7-46.1,119-101.1,128.5-138.9l-67.2,10.2l-39.6-81.5l-15.2,89.7
		l-89.9,14.3l82.6,41.1L226.2,336.2z"/>
</g>
</svg>
