<?xml version="1.0" encoding="UTF-8"?>
<svg width="24px" height="24px" viewBox="0 0 20 20" version="1.1" xmlns="http://www.w3.org/2000/svg" xmlns:xlink="http://www.w3.org/1999/xlink">
    <title>USDT-3</title>
    <g id="页面-1" stroke="none" stroke-width="1" fill="none" fill-rule="evenodd">
        <g id="画板" transform="translate(-144.000000, -134.000000)" fill-rule="nonzero">
            <g id="USDT-3" transform="translate(144.000000, 134.000000)">
                <path d="M0,10 C0,15.5227778 4.47722223,20 10,20 C15.5227778,20 20,15.5227778 20,10 C20,4.47722223 15.5227778,0 10,0 C4.47722223,0 0,4.47722223 0,10 Z" id="路径" fill="#1BA27A"></path>
                <polygon id="路径" fill="#FFFFFF" points="14.69 5.04 5.22 5.04 5.22 7.33 8.82 7.33 8.82 10.69 11.1 10.69 11.1 7.33 14.69 7.33"></polygon>
                <path d="M16.02,10.17 C16.02,9.42 13.32,8.82 9.98,8.82 C6.64,8.82 3.94,9.43 3.94,10.17 C3.94,10.83 6.04,11.38 8.82,11.5 L8.82,16.32 L11.1,16.32 L11.1,11.5 C13.9,11.38 16.02,10.83 16.02,10.17 Z M9.98,11.05 C7.01,11.05 4.6,10.58 4.6,10 C4.6,9.42 7.01,8.95 9.98,8.95 C12.95,8.95 15.36,9.42 15.36,10 C15.36,10.58 12.95,11.05 9.98,11.05 Z" id="形状" fill="#FFFFFF"></path>
            </g>
        </g>
    </g>
</svg>