<svg width="302" height="98" viewBox="0 0 302 98" fill="none" xmlns="http://www.w3.org/2000/svg">
<path fill-rule="evenodd" clip-rule="evenodd" d="M25.5 45.5H275.5V71.5H25.5V45.5Z" fill="white" stroke="#AFDFFF"/>
<path d="M58.2852 58.207H59.0996C59.6113 58.1992 60.0137 58.0645 60.3066 57.8027C60.5996 57.541 60.7461 57.1875 60.7461 56.7422C60.7461 55.7422 60.248 55.2422 59.252 55.2422C58.7832 55.2422 58.4082 55.377 58.127 55.6465C57.8496 55.9121 57.7109 56.2656 57.7109 56.707H56.627C56.627 56.0312 56.873 55.4707 57.3652 55.0254C57.8613 54.5762 58.4902 54.3516 59.252 54.3516C60.0566 54.3516 60.6875 54.5645 61.1445 54.9902C61.6016 55.416 61.8301 56.0078 61.8301 56.7656C61.8301 57.1367 61.709 57.4961 61.4668 57.8438C61.2285 58.1914 60.9023 58.4512 60.4883 58.623C60.957 58.7715 61.3184 59.0176 61.5723 59.3613C61.8301 59.7051 61.959 60.125 61.959 60.6211C61.959 61.3867 61.709 61.9941 61.209 62.4434C60.709 62.8926 60.0586 63.1172 59.2578 63.1172C58.457 63.1172 57.8047 62.9004 57.3008 62.4668C56.8008 62.0332 56.5508 61.4609 56.5508 60.75H57.6406C57.6406 61.1992 57.7871 61.5586 58.0801 61.8281C58.373 62.0977 58.7656 62.2324 59.2578 62.2324C59.7812 62.2324 60.1816 62.0957 60.459 61.8223C60.7363 61.5488 60.875 61.1562 60.875 60.6445C60.875 60.1484 60.7227 59.7676 60.418 59.502C60.1133 59.2363 59.6738 59.0996 59.0996 59.0918H58.2852V58.207Z" fill="#ABB4BB"/>
<path d="M82.5527 59.0098C82.5527 59.8457 82.4121 60.5762 82.1309 61.2012C81.8496 61.8223 81.4512 62.2969 80.9355 62.625C80.4199 62.9531 79.8184 63.1172 79.1309 63.1172C78.459 63.1172 77.8633 62.9531 77.3438 62.625C76.8242 62.293 76.4199 61.8223 76.1309 61.2129C75.8457 60.5996 75.6992 59.8906 75.6914 59.0859V58.4707C75.6914 57.6504 75.834 56.9258 76.1191 56.2969C76.4043 55.668 76.8066 55.1875 77.3262 54.8555C77.8496 54.5195 78.4473 54.3516 79.1191 54.3516C79.8027 54.3516 80.4043 54.5176 80.9238 54.8496C81.4473 55.1777 81.8496 55.6562 82.1309 56.2852C82.4121 56.9102 82.5527 57.6387 82.5527 58.4707V59.0098ZM81.4336 58.459C81.4336 57.4473 81.2305 56.6719 80.8242 56.1328C80.418 55.5898 79.8496 55.3184 79.1191 55.3184C78.4082 55.3184 77.8477 55.5898 77.4375 56.1328C77.0312 56.6719 76.8223 57.4219 76.8105 58.3828V59.0098C76.8105 59.9902 77.0156 60.7617 77.4258 61.3242C77.8398 61.8828 78.4082 62.1621 79.1309 62.1621C79.8574 62.1621 80.4199 61.8984 80.8184 61.3711C81.2168 60.8398 81.4219 60.0801 81.4336 59.0918V58.459ZM86.8945 57.7383L88.9395 54.4688H90.2637L87.5684 58.6992L90.3281 63H88.9922L86.8945 59.6719L84.7852 63H83.4551L86.2207 58.6992L83.5195 54.4688H84.8379L86.8945 57.7383ZM92.4844 62.1152H96.1934V63H91.1602V62.2031L94.6582 57.5566H91.2129V56.6602H96.0176V57.4277L92.4844 62.1152ZM98.8828 58.207H99.6973C100.209 58.1992 100.611 58.0645 100.904 57.8027C101.197 57.541 101.344 57.1875 101.344 56.7422C101.344 55.7422 100.846 55.2422 99.8496 55.2422C99.3809 55.2422 99.0059 55.377 98.7246 55.6465C98.4473 55.9121 98.3086 56.2656 98.3086 56.707H97.2246C97.2246 56.0312 97.4707 55.4707 97.9629 55.0254C98.459 54.5762 99.0879 54.3516 99.8496 54.3516C100.654 54.3516 101.285 54.5645 101.742 54.9902C102.199 55.416 102.428 56.0078 102.428 56.7656C102.428 57.1367 102.307 57.4961 102.064 57.8438C101.826 58.1914 101.5 58.4512 101.086 58.623C101.555 58.7715 101.916 59.0176 102.17 59.3613C102.428 59.7051 102.557 60.125 102.557 60.6211C102.557 61.3867 102.307 61.9941 101.807 62.4434C101.307 62.8926 100.656 63.1172 99.8555 63.1172C99.0547 63.1172 98.4023 62.9004 97.8984 62.4668C97.3984 62.0332 97.1484 61.4609 97.1484 60.75H98.2383C98.2383 61.1992 98.3848 61.5586 98.6777 61.8281C98.9707 62.0977 99.3633 62.2324 99.8555 62.2324C100.379 62.2324 100.779 62.0957 101.057 61.8223C101.334 61.5488 101.473 61.1562 101.473 60.6445C101.473 60.1484 101.32 59.7676 101.016 59.502C100.711 59.2363 100.271 59.0996 99.6973 59.0918H98.8828V58.207ZM104.203 62.4316C104.203 62.2441 104.258 62.0879 104.367 61.9629C104.48 61.8379 104.648 61.7754 104.871 61.7754C105.094 61.7754 105.262 61.8379 105.375 61.9629C105.492 62.0879 105.551 62.2441 105.551 62.4316C105.551 62.6113 105.492 62.7617 105.375 62.8828C105.262 63.0039 105.094 63.0645 104.871 63.0645C104.648 63.0645 104.48 63.0039 104.367 62.8828C104.258 62.7617 104.203 62.6113 104.203 62.4316ZM106.764 62.4316C106.764 62.2441 106.818 62.0879 106.928 61.9629C107.041 61.8379 107.209 61.7754 107.432 61.7754C107.654 61.7754 107.822 61.8379 107.936 61.9629C108.053 62.0879 108.111 62.2441 108.111 62.4316C108.111 62.6113 108.053 62.7617 107.936 62.8828C107.822 63.0039 107.654 63.0645 107.432 63.0645C107.209 63.0645 107.041 63.0039 106.928 62.8828C106.818 62.7617 106.764 62.6113 106.764 62.4316ZM109.195 62.4316C109.195 62.2441 109.25 62.0879 109.359 61.9629C109.473 61.8379 109.641 61.7754 109.863 61.7754C110.086 61.7754 110.254 61.8379 110.367 61.9629C110.484 62.0879 110.543 62.2441 110.543 62.4316C110.543 62.6113 110.484 62.7617 110.367 62.8828C110.254 63.0039 110.086 63.0645 109.863 63.0645C109.641 63.0645 109.473 63.0039 109.359 62.8828C109.25 62.7617 109.195 62.6113 109.195 62.4316ZM118.248 55.3945H115.506V63H114.387V55.3945H111.65V54.4688H118.248V55.3945ZM120.809 58.207H121.623C122.135 58.1992 122.537 58.0645 122.83 57.8027C123.123 57.541 123.27 57.1875 123.27 56.7422C123.27 55.7422 122.771 55.2422 121.775 55.2422C121.307 55.2422 120.932 55.377 120.65 55.6465C120.373 55.9121 120.234 56.2656 120.234 56.707H119.15C119.15 56.0312 119.396 55.4707 119.889 55.0254C120.385 54.5762 121.014 54.3516 121.775 54.3516C122.58 54.3516 123.211 54.5645 123.668 54.9902C124.125 55.416 124.354 56.0078 124.354 56.7656C124.354 57.1367 124.232 57.4961 123.99 57.8438C123.752 58.1914 123.426 58.4512 123.012 58.623C123.48 58.7715 123.842 59.0176 124.096 59.3613C124.354 59.7051 124.482 60.125 124.482 60.6211C124.482 61.3867 124.232 61.9941 123.732 62.4434C123.232 62.8926 122.582 63.1172 121.781 63.1172C120.98 63.1172 120.328 62.9004 119.824 62.4668C119.324 62.0332 119.074 61.4609 119.074 60.75H120.164C120.164 61.1992 120.311 61.5586 120.604 61.8281C120.896 62.0977 121.289 62.2324 121.781 62.2324C122.305 62.2324 122.705 62.0957 122.982 61.8223C123.26 61.5488 123.398 61.1562 123.398 60.6445C123.398 60.1484 123.246 59.7676 122.941 59.502C122.637 59.2363 122.197 59.0996 121.623 59.0918H120.809V58.207ZM130.963 60.7734H127.389L126.586 63H125.426L128.684 54.4688H129.668L132.932 63H131.777L130.963 60.7734ZM127.729 59.8477H130.629L129.176 55.8574L127.729 59.8477ZM138.375 60.1348H139.559V61.0195H138.375V63H137.285V61.0195H133.4V60.3809L137.221 54.4688H138.375V60.1348ZM134.631 60.1348H137.285V55.9512L137.156 56.1855L134.631 60.1348Z" fill="#ABB4BB"/>
<path d="M173.059 59.3613C173.059 60.6309 172.842 61.5742 172.408 62.1914C171.975 62.8086 171.297 63.1172 170.375 63.1172C169.465 63.1172 168.791 62.8164 168.354 62.2148C167.916 61.6094 167.689 60.707 167.674 59.5078V58.0605C167.674 56.8066 167.891 55.875 168.324 55.2656C168.758 54.6562 169.438 54.3516 170.363 54.3516C171.281 54.3516 171.957 54.6465 172.391 55.2363C172.824 55.8223 173.047 56.7285 173.059 57.9551V59.3613ZM171.975 57.8789C171.975 56.9609 171.846 56.293 171.588 55.875C171.33 55.4531 170.922 55.2422 170.363 55.2422C169.809 55.2422 169.404 55.4512 169.15 55.8691C168.896 56.2871 168.766 56.9297 168.758 57.7969V59.5312C168.758 60.4531 168.891 61.1348 169.156 61.5762C169.426 62.0137 169.832 62.2324 170.375 62.2324C170.91 62.2324 171.307 62.0254 171.564 61.6113C171.826 61.1973 171.963 60.5449 171.975 59.6543V57.8789ZM174.582 62.4316C174.582 62.2441 174.637 62.0879 174.746 61.9629C174.859 61.8379 175.027 61.7754 175.25 61.7754C175.473 61.7754 175.641 61.8379 175.754 61.9629C175.871 62.0879 175.93 62.2441 175.93 62.4316C175.93 62.6113 175.871 62.7617 175.754 62.8828C175.641 63.0039 175.473 63.0645 175.25 63.0645C175.027 63.0645 174.859 63.0039 174.746 62.8828C174.637 62.7617 174.582 62.6113 174.582 62.4316ZM182.961 59.3613C182.961 60.6309 182.744 61.5742 182.311 62.1914C181.877 62.8086 181.199 63.1172 180.277 63.1172C179.367 63.1172 178.693 62.8164 178.256 62.2148C177.818 61.6094 177.592 60.707 177.576 59.5078V58.0605C177.576 56.8066 177.793 55.875 178.227 55.2656C178.66 54.6562 179.34 54.3516 180.266 54.3516C181.184 54.3516 181.859 54.6465 182.293 55.2363C182.727 55.8223 182.949 56.7285 182.961 57.9551V59.3613ZM181.877 57.8789C181.877 56.9609 181.748 56.293 181.49 55.875C181.232 55.4531 180.824 55.2422 180.266 55.2422C179.711 55.2422 179.307 55.4512 179.053 55.8691C178.799 56.2871 178.668 56.9297 178.66 57.7969V59.5312C178.66 60.4531 178.793 61.1348 179.059 61.5762C179.328 62.0137 179.734 62.2324 180.277 62.2324C180.812 62.2324 181.209 62.0254 181.467 61.6113C181.729 61.1973 181.865 60.5449 181.877 59.6543V57.8789ZM189.939 63H184.35V62.2207L187.303 58.9395C187.74 58.4434 188.041 58.041 188.205 57.7324C188.373 57.4199 188.457 57.0977 188.457 56.7656C188.457 56.3203 188.322 55.9551 188.053 55.6699C187.783 55.3848 187.424 55.2422 186.975 55.2422C186.436 55.2422 186.016 55.3965 185.715 55.7051C185.418 56.0098 185.27 56.4355 185.27 56.9824H184.186C184.186 56.1973 184.438 55.5625 184.941 55.0781C185.449 54.5938 186.127 54.3516 186.975 54.3516C187.768 54.3516 188.395 54.5605 188.855 54.9785C189.316 55.3926 189.547 55.9453 189.547 56.6367C189.547 57.4766 189.012 58.4766 187.941 59.6367L185.656 62.1152H189.939V63ZM196.438 59.3613C196.438 60.6309 196.221 61.5742 195.787 62.1914C195.354 62.8086 194.676 63.1172 193.754 63.1172C192.844 63.1172 192.17 62.8164 191.732 62.2148C191.295 61.6094 191.068 60.707 191.053 59.5078V58.0605C191.053 56.8066 191.27 55.875 191.703 55.2656C192.137 54.6562 192.816 54.3516 193.742 54.3516C194.66 54.3516 195.336 54.6465 195.77 55.2363C196.203 55.8223 196.426 56.7285 196.438 57.9551V59.3613ZM195.354 57.8789C195.354 56.9609 195.225 56.293 194.967 55.875C194.709 55.4531 194.301 55.2422 193.742 55.2422C193.188 55.2422 192.783 55.4512 192.529 55.8691C192.275 56.2871 192.145 56.9297 192.137 57.7969V59.5312C192.137 60.4531 192.27 61.1348 192.535 61.5762C192.805 62.0137 193.211 62.2324 193.754 62.2324C194.289 62.2324 194.686 62.0254 194.943 61.6113C195.205 61.1973 195.342 60.5449 195.354 59.6543V57.8789ZM203.176 59.3613C203.176 60.6309 202.959 61.5742 202.525 62.1914C202.092 62.8086 201.414 63.1172 200.492 63.1172C199.582 63.1172 198.908 62.8164 198.471 62.2148C198.033 61.6094 197.807 60.707 197.791 59.5078V58.0605C197.791 56.8066 198.008 55.875 198.441 55.2656C198.875 54.6562 199.555 54.3516 200.48 54.3516C201.398 54.3516 202.074 54.6465 202.508 55.2363C202.941 55.8223 203.164 56.7285 203.176 57.9551V59.3613ZM202.092 57.8789C202.092 56.9609 201.963 56.293 201.705 55.875C201.447 55.4531 201.039 55.2422 200.48 55.2422C199.926 55.2422 199.521 55.4512 199.268 55.8691C199.014 56.2871 198.883 56.9297 198.875 57.7969V59.5312C198.875 60.4531 199.008 61.1348 199.273 61.5762C199.543 62.0137 199.949 62.2324 200.492 62.2324C201.027 62.2324 201.424 62.0254 201.682 61.6113C201.943 61.1973 202.08 60.5449 202.092 59.6543V57.8789ZM209.914 59.3613C209.914 60.6309 209.697 61.5742 209.264 62.1914C208.83 62.8086 208.152 63.1172 207.23 63.1172C206.32 63.1172 205.646 62.8164 205.209 62.2148C204.771 61.6094 204.545 60.707 204.529 59.5078V58.0605C204.529 56.8066 204.746 55.875 205.18 55.2656C205.613 54.6562 206.293 54.3516 207.219 54.3516C208.137 54.3516 208.812 54.6465 209.246 55.2363C209.68 55.8223 209.902 56.7285 209.914 57.9551V59.3613ZM208.83 57.8789C208.83 56.9609 208.701 56.293 208.443 55.875C208.186 55.4531 207.777 55.2422 207.219 55.2422C206.664 55.2422 206.26 55.4512 206.006 55.8691C205.752 56.2871 205.621 56.9297 205.613 57.7969V59.5312C205.613 60.4531 205.746 61.1348 206.012 61.5762C206.281 62.0137 206.688 62.2324 207.23 62.2324C207.766 62.2324 208.162 62.0254 208.42 61.6113C208.682 61.1973 208.818 60.5449 208.83 59.6543V57.8789ZM216.652 59.3613C216.652 60.6309 216.436 61.5742 216.002 62.1914C215.568 62.8086 214.891 63.1172 213.969 63.1172C213.059 63.1172 212.385 62.8164 211.947 62.2148C211.51 61.6094 211.283 60.707 211.268 59.5078V58.0605C211.268 56.8066 211.484 55.875 211.918 55.2656C212.352 54.6562 213.031 54.3516 213.957 54.3516C214.875 54.3516 215.551 54.6465 215.984 55.2363C216.418 55.8223 216.641 56.7285 216.652 57.9551V59.3613ZM215.568 57.8789C215.568 56.9609 215.439 56.293 215.182 55.875C214.924 55.4531 214.516 55.2422 213.957 55.2422C213.402 55.2422 212.998 55.4512 212.744 55.8691C212.49 56.2871 212.359 56.9297 212.352 57.7969V59.5312C212.352 60.4531 212.484 61.1348 212.75 61.5762C213.02 62.0137 213.426 62.2324 213.969 62.2324C214.504 62.2324 214.9 62.0254 215.158 61.6113C215.42 61.1973 215.557 60.5449 215.568 59.6543V57.8789ZM223.812 59.1973C222.848 58.9199 222.145 58.5801 221.703 58.1777C221.266 57.7715 221.047 57.2715 221.047 56.6777C221.047 56.0059 221.314 55.4512 221.85 55.0137C222.389 54.5723 223.088 54.3516 223.947 54.3516C224.533 54.3516 225.055 54.4648 225.512 54.6914C225.973 54.918 226.328 55.2305 226.578 55.6289C226.832 56.0273 226.959 56.4629 226.959 56.9355H225.828C225.828 56.4199 225.664 56.0156 225.336 55.7227C225.008 55.4258 224.545 55.2773 223.947 55.2773C223.393 55.2773 222.959 55.4004 222.646 55.6465C222.338 55.8887 222.184 56.2266 222.184 56.6602C222.184 57.0078 222.33 57.3027 222.623 57.5449C222.92 57.7832 223.422 58.002 224.129 58.2012C224.84 58.4004 225.395 58.6211 225.793 58.8633C226.195 59.1016 226.492 59.3809 226.684 59.7012C226.879 60.0215 226.977 60.3984 226.977 60.832C226.977 61.5234 226.707 62.0781 226.168 62.4961C225.629 62.9102 224.908 63.1172 224.006 63.1172C223.42 63.1172 222.873 63.0059 222.365 62.7832C221.857 62.5566 221.465 62.248 221.188 61.8574C220.914 61.4668 220.777 61.0234 220.777 60.5273H221.908C221.908 61.043 222.098 61.4512 222.477 61.752C222.859 62.0488 223.369 62.1973 224.006 62.1973C224.6 62.1973 225.055 62.0762 225.371 61.834C225.688 61.5918 225.846 61.2617 225.846 60.8438C225.846 60.4258 225.699 60.1035 225.406 59.877C225.113 59.6465 224.582 59.4199 223.812 59.1973ZM234.318 55.3945H231.576V63H230.457V55.3945H227.721V54.4688H234.318V55.3945ZM241.695 60.293C241.59 61.1953 241.256 61.8926 240.693 62.3848C240.135 62.873 239.391 63.1172 238.461 63.1172C237.453 63.1172 236.645 62.7559 236.035 62.0332C235.43 61.3105 235.127 60.3438 235.127 59.1328V58.3125C235.127 57.5195 235.268 56.8223 235.549 56.2207C235.834 55.6191 236.236 55.1582 236.756 54.8379C237.275 54.5137 237.877 54.3516 238.561 54.3516C239.467 54.3516 240.193 54.6055 240.74 55.1133C241.287 55.6172 241.605 56.3164 241.695 57.2109H240.564C240.467 56.5312 240.254 56.0391 239.926 55.7344C239.602 55.4297 239.146 55.2773 238.561 55.2773C237.842 55.2773 237.277 55.543 236.867 56.0742C236.461 56.6055 236.258 57.3613 236.258 58.3418V59.168C236.258 60.0938 236.451 60.8301 236.838 61.377C237.225 61.9238 237.766 62.1973 238.461 62.1973C239.086 62.1973 239.564 62.0566 239.896 61.7754C240.232 61.4902 240.455 60.9961 240.564 60.293H241.695Z" fill="#ABB4BB"/>
<path d="M41.5 66C45.0899 66 48 63.0899 48 59.5C48 55.9101 45.0899 53 41.5 53C37.9101 53 35 55.9101 35 59.5C35 63.0899 37.9101 66 41.5 66Z" stroke="#AFDFFF" stroke-width="2"/>
<path fill-rule="evenodd" clip-rule="evenodd" d="M25.5 0.5H275.5V26.5H25.5V0.5Z" fill="white" stroke="#AFDFFF"/>
<path d="M60.2715 18H59.1816V10.7754L56.9961 11.5781V10.5938L60.1016 9.42773H60.2715V18Z" fill="#ABB4BB"/>
<path d="M82.5527 14.0098C82.5527 14.8457 82.4121 15.5762 82.1309 16.2012C81.8496 16.8223 81.4512 17.2969 80.9355 17.625C80.4199 17.9531 79.8184 18.1172 79.1309 18.1172C78.459 18.1172 77.8633 17.9531 77.3438 17.625C76.8242 17.293 76.4199 16.8223 76.1309 16.2129C75.8457 15.5996 75.6992 14.8906 75.6914 14.0859V13.4707C75.6914 12.6504 75.834 11.9258 76.1191 11.2969C76.4043 10.668 76.8066 10.1875 77.3262 9.85547C77.8496 9.51953 78.4473 9.35156 79.1191 9.35156C79.8027 9.35156 80.4043 9.51758 80.9238 9.84961C81.4473 10.1777 81.8496 10.6562 82.1309 11.2852C82.4121 11.9102 82.5527 12.6387 82.5527 13.4707V14.0098ZM81.4336 13.459C81.4336 12.4473 81.2305 11.6719 80.8242 11.1328C80.418 10.5898 79.8496 10.3184 79.1191 10.3184C78.4082 10.3184 77.8477 10.5898 77.4375 11.1328C77.0312 11.6719 76.8223 12.4219 76.8105 13.3828V14.0098C76.8105 14.9902 77.0156 15.7617 77.4258 16.3242C77.8398 16.8828 78.4082 17.1621 79.1309 17.1621C79.8574 17.1621 80.4199 16.8984 80.8184 16.3711C81.2168 15.8398 81.4219 15.0801 81.4336 14.0918V13.459ZM86.8945 12.7383L88.9395 9.46875H90.2637L87.5684 13.6992L90.3281 18H88.9922L86.8945 14.6719L84.7852 18H83.4551L86.2207 13.6992L83.5195 9.46875H84.8379L86.8945 12.7383ZM95.3789 18C95.3164 17.875 95.2656 17.6523 95.2266 17.332C94.7227 17.8555 94.1211 18.1172 93.4219 18.1172C92.7969 18.1172 92.2832 17.9414 91.8809 17.5898C91.4824 17.2344 91.2832 16.7852 91.2832 16.2422C91.2832 15.582 91.5332 15.0703 92.0332 14.707C92.5371 14.3398 93.2441 14.1562 94.1543 14.1562H95.209V13.6582C95.209 13.2793 95.0957 12.9785 94.8691 12.7559C94.6426 12.5293 94.3086 12.416 93.8672 12.416C93.4805 12.416 93.1562 12.5137 92.8945 12.709C92.6328 12.9043 92.502 13.1406 92.502 13.418H91.4121C91.4121 13.1016 91.5234 12.7969 91.7461 12.5039C91.9727 12.207 92.2773 11.9727 92.6602 11.8008C93.0469 11.6289 93.4707 11.543 93.9316 11.543C94.6621 11.543 95.2344 11.7266 95.6484 12.0938C96.0625 12.457 96.2773 12.959 96.293 13.5996V16.5176C96.293 17.0996 96.3672 17.5625 96.5156 17.9062V18H95.3789ZM93.5801 17.1738C93.9199 17.1738 94.2422 17.0859 94.5469 16.9102C94.8516 16.7344 95.0723 16.5059 95.209 16.2246V14.9238H94.3594C93.0312 14.9238 92.3672 15.3125 92.3672 16.0898C92.3672 16.4297 92.4805 16.6953 92.707 16.8867C92.9336 17.0781 93.2246 17.1738 93.5801 17.1738ZM102.457 15.1348H103.641V16.0195H102.457V18H101.367V16.0195H97.4824V15.3809L101.303 9.46875H102.457V15.1348ZM98.7129 15.1348H101.367V10.9512L101.238 11.1855L98.7129 15.1348ZM104.777 17.4316C104.777 17.2441 104.832 17.0879 104.941 16.9629C105.055 16.8379 105.223 16.7754 105.445 16.7754C105.668 16.7754 105.836 16.8379 105.949 16.9629C106.066 17.0879 106.125 17.2441 106.125 17.4316C106.125 17.6113 106.066 17.7617 105.949 17.8828C105.836 18.0039 105.668 18.0645 105.445 18.0645C105.223 18.0645 105.055 18.0039 104.941 17.8828C104.832 17.7617 104.777 17.6113 104.777 17.4316ZM107.338 17.4316C107.338 17.2441 107.393 17.0879 107.502 16.9629C107.615 16.8379 107.783 16.7754 108.006 16.7754C108.229 16.7754 108.396 16.8379 108.51 16.9629C108.627 17.0879 108.686 17.2441 108.686 17.4316C108.686 17.6113 108.627 17.7617 108.51 17.8828C108.396 18.0039 108.229 18.0645 108.006 18.0645C107.783 18.0645 107.615 18.0039 107.502 17.8828C107.393 17.7617 107.338 17.6113 107.338 17.4316ZM109.77 17.4316C109.77 17.2441 109.824 17.0879 109.934 16.9629C110.047 16.8379 110.215 16.7754 110.438 16.7754C110.66 16.7754 110.828 16.8379 110.941 16.9629C111.059 17.0879 111.117 17.2441 111.117 17.4316C111.117 17.6113 111.059 17.7617 110.941 17.8828C110.828 18.0039 110.66 18.0645 110.438 18.0645C110.215 18.0645 110.047 18.0039 109.934 17.8828C109.824 17.7617 109.77 17.6113 109.77 17.4316ZM116.449 16.3184C116.449 16.0254 116.338 15.7988 116.115 15.6387C115.896 15.4746 115.512 15.334 114.961 15.2168C114.414 15.0996 113.979 14.959 113.654 14.7949C113.334 14.6309 113.096 14.4355 112.939 14.209C112.787 13.9824 112.711 13.7129 112.711 13.4004C112.711 12.8809 112.93 12.4414 113.367 12.082C113.809 11.7227 114.371 11.543 115.055 11.543C115.773 11.543 116.355 11.7285 116.801 12.0996C117.25 12.4707 117.475 12.9453 117.475 13.5234H116.385C116.385 13.2266 116.258 12.9707 116.004 12.7559C115.754 12.541 115.438 12.4336 115.055 12.4336C114.66 12.4336 114.352 12.5195 114.129 12.6914C113.906 12.8633 113.795 13.0879 113.795 13.3652C113.795 13.627 113.898 13.8242 114.105 13.957C114.312 14.0898 114.686 14.2168 115.225 14.3379C115.768 14.459 116.207 14.6035 116.543 14.7715C116.879 14.9395 117.127 15.1426 117.287 15.3809C117.451 15.6152 117.533 15.9023 117.533 16.2422C117.533 16.8086 117.307 17.2637 116.854 17.6074C116.4 17.9473 115.812 18.1172 115.09 18.1172C114.582 18.1172 114.133 18.0273 113.742 17.8477C113.352 17.668 113.045 17.418 112.822 17.0977C112.604 16.7734 112.494 16.4238 112.494 16.0488H113.578C113.598 16.4121 113.742 16.7012 114.012 16.916C114.285 17.127 114.645 17.2324 115.09 17.2324C115.5 17.2324 115.828 17.1504 116.074 16.9863C116.324 16.8184 116.449 16.5957 116.449 16.3184ZM124.184 14.3613C124.184 15.6309 123.967 16.5742 123.533 17.1914C123.1 17.8086 122.422 18.1172 121.5 18.1172C120.59 18.1172 119.916 17.8164 119.479 17.2148C119.041 16.6094 118.814 15.707 118.799 14.5078V13.0605C118.799 11.8066 119.016 10.875 119.449 10.2656C119.883 9.65625 120.562 9.35156 121.488 9.35156C122.406 9.35156 123.082 9.64648 123.516 10.2363C123.949 10.8223 124.172 11.7285 124.184 12.9551V14.3613ZM123.1 12.8789C123.1 11.9609 122.971 11.293 122.713 10.875C122.455 10.4531 122.047 10.2422 121.488 10.2422C120.934 10.2422 120.529 10.4512 120.275 10.8691C120.021 11.2871 119.891 11.9297 119.883 12.7969V14.5312C119.883 15.4531 120.016 16.1348 120.281 16.5762C120.551 17.0137 120.957 17.2324 121.5 17.2324C122.035 17.2324 122.432 17.0254 122.689 16.6113C122.951 16.1973 123.088 15.5449 123.1 14.6543V12.8789ZM129.598 18C129.535 17.875 129.484 17.6523 129.445 17.332C128.941 17.8555 128.34 18.1172 127.641 18.1172C127.016 18.1172 126.502 17.9414 126.1 17.5898C125.701 17.2344 125.502 16.7852 125.502 16.2422C125.502 15.582 125.752 15.0703 126.252 14.707C126.756 14.3398 127.463 14.1562 128.373 14.1562H129.428V13.6582C129.428 13.2793 129.314 12.9785 129.088 12.7559C128.861 12.5293 128.527 12.416 128.086 12.416C127.699 12.416 127.375 12.5137 127.113 12.709C126.852 12.9043 126.721 13.1406 126.721 13.418H125.631C125.631 13.1016 125.742 12.7969 125.965 12.5039C126.191 12.207 126.496 11.9727 126.879 11.8008C127.266 11.6289 127.689 11.543 128.15 11.543C128.881 11.543 129.453 11.7266 129.867 12.0938C130.281 12.457 130.496 12.959 130.512 13.5996V16.5176C130.512 17.0996 130.586 17.5625 130.734 17.9062V18H129.598ZM127.799 17.1738C128.139 17.1738 128.461 17.0859 128.766 16.9102C129.07 16.7344 129.291 16.5059 129.428 16.2246V14.9238H128.578C127.25 14.9238 126.586 15.3125 126.586 16.0898C126.586 16.4297 126.699 16.6953 126.926 16.8867C127.152 17.0781 127.443 17.1738 127.799 17.1738ZM137.689 18H132.1V17.2207L135.053 13.9395C135.49 13.4434 135.791 13.041 135.955 12.7324C136.123 12.4199 136.207 12.0977 136.207 11.7656C136.207 11.3203 136.072 10.9551 135.803 10.6699C135.533 10.3848 135.174 10.2422 134.725 10.2422C134.186 10.2422 133.766 10.3965 133.465 10.7051C133.168 11.0098 133.02 11.4355 133.02 11.9824H131.936C131.936 11.1973 132.188 10.5625 132.691 10.0781C133.199 9.59375 133.877 9.35156 134.725 9.35156C135.518 9.35156 136.145 9.56055 136.605 9.97852C137.066 10.3926 137.297 10.9453 137.297 11.6367C137.297 12.4766 136.762 13.4766 135.691 14.6367L133.406 17.1152H137.689V18Z" fill="#ABB4BB"/>
<path d="M173.059 14.3613C173.059 15.6309 172.842 16.5742 172.408 17.1914C171.975 17.8086 171.297 18.1172 170.375 18.1172C169.465 18.1172 168.791 17.8164 168.354 17.2148C167.916 16.6094 167.689 15.707 167.674 14.5078V13.0605C167.674 11.8066 167.891 10.875 168.324 10.2656C168.758 9.65625 169.438 9.35156 170.363 9.35156C171.281 9.35156 171.957 9.64648 172.391 10.2363C172.824 10.8223 173.047 11.7285 173.059 12.9551V14.3613ZM171.975 12.8789C171.975 11.9609 171.846 11.293 171.588 10.875C171.33 10.4531 170.922 10.2422 170.363 10.2422C169.809 10.2422 169.404 10.4512 169.15 10.8691C168.896 11.2871 168.766 11.9297 168.758 12.7969V14.5312C168.758 15.4531 168.891 16.1348 169.156 16.5762C169.426 17.0137 169.832 17.2324 170.375 17.2324C170.91 17.2324 171.307 17.0254 171.564 16.6113C171.826 16.1973 171.963 15.5449 171.975 14.6543V12.8789ZM174.582 17.4316C174.582 17.2441 174.637 17.0879 174.746 16.9629C174.859 16.8379 175.027 16.7754 175.25 16.7754C175.473 16.7754 175.641 16.8379 175.754 16.9629C175.871 17.0879 175.93 17.2441 175.93 17.4316C175.93 17.6113 175.871 17.7617 175.754 17.8828C175.641 18.0039 175.473 18.0645 175.25 18.0645C175.027 18.0645 174.859 18.0039 174.746 17.8828C174.637 17.7617 174.582 17.6113 174.582 17.4316ZM182.961 14.3613C182.961 15.6309 182.744 16.5742 182.311 17.1914C181.877 17.8086 181.199 18.1172 180.277 18.1172C179.367 18.1172 178.693 17.8164 178.256 17.2148C177.818 16.6094 177.592 15.707 177.576 14.5078V13.0605C177.576 11.8066 177.793 10.875 178.227 10.2656C178.66 9.65625 179.34 9.35156 180.266 9.35156C181.184 9.35156 181.859 9.64648 182.293 10.2363C182.727 10.8223 182.949 11.7285 182.961 12.9551V14.3613ZM181.877 12.8789C181.877 11.9609 181.748 11.293 181.49 10.875C181.232 10.4531 180.824 10.2422 180.266 10.2422C179.711 10.2422 179.307 10.4512 179.053 10.8691C178.799 11.2871 178.668 11.9297 178.66 12.7969V14.5312C178.66 15.4531 178.793 16.1348 179.059 16.5762C179.328 17.0137 179.734 17.2324 180.277 17.2324C180.812 17.2324 181.209 17.0254 181.467 16.6113C181.729 16.1973 181.865 15.5449 181.877 14.6543V12.8789ZM187.912 18H186.822V10.7754L184.637 11.5781V10.5938L187.742 9.42773H187.912V18ZM191.586 13.7227L192.02 9.46875H196.391V10.4707H192.939L192.682 12.7969C193.1 12.5508 193.574 12.4277 194.105 12.4277C194.883 12.4277 195.5 12.6855 195.957 13.2012C196.414 13.7129 196.643 14.4062 196.643 15.2812C196.643 16.1602 196.404 16.8535 195.928 17.3613C195.455 17.8652 194.793 18.1172 193.941 18.1172C193.188 18.1172 192.572 17.9082 192.096 17.4902C191.619 17.0723 191.348 16.4941 191.281 15.7559H192.307C192.373 16.2441 192.547 16.6133 192.828 16.8633C193.109 17.1094 193.48 17.2324 193.941 17.2324C194.445 17.2324 194.84 17.0605 195.125 16.7168C195.414 16.373 195.559 15.8984 195.559 15.293C195.559 14.7227 195.402 14.2656 195.09 13.9219C194.781 13.5742 194.369 13.4004 193.854 13.4004C193.381 13.4004 193.01 13.5039 192.74 13.7109L192.453 13.9453L191.586 13.7227ZM203.176 14.3613C203.176 15.6309 202.959 16.5742 202.525 17.1914C202.092 17.8086 201.414 18.1172 200.492 18.1172C199.582 18.1172 198.908 17.8164 198.471 17.2148C198.033 16.6094 197.807 15.707 197.791 14.5078V13.0605C197.791 11.8066 198.008 10.875 198.441 10.2656C198.875 9.65625 199.555 9.35156 200.48 9.35156C201.398 9.35156 202.074 9.64648 202.508 10.2363C202.941 10.8223 203.164 11.7285 203.176 12.9551V14.3613ZM202.092 12.8789C202.092 11.9609 201.963 11.293 201.705 10.875C201.447 10.4531 201.039 10.2422 200.48 10.2422C199.926 10.2422 199.521 10.4512 199.268 10.8691C199.014 11.2871 198.883 11.9297 198.875 12.7969V14.5312C198.875 15.4531 199.008 16.1348 199.273 16.5762C199.543 17.0137 199.949 17.2324 200.492 17.2324C201.027 17.2324 201.424 17.0254 201.682 16.6113C201.943 16.1973 202.08 15.5449 202.092 14.6543V12.8789ZM209.914 14.3613C209.914 15.6309 209.697 16.5742 209.264 17.1914C208.83 17.8086 208.152 18.1172 207.23 18.1172C206.32 18.1172 205.646 17.8164 205.209 17.2148C204.771 16.6094 204.545 15.707 204.529 14.5078V13.0605C204.529 11.8066 204.746 10.875 205.18 10.2656C205.613 9.65625 206.293 9.35156 207.219 9.35156C208.137 9.35156 208.812 9.64648 209.246 10.2363C209.68 10.8223 209.902 11.7285 209.914 12.9551V14.3613ZM208.83 12.8789C208.83 11.9609 208.701 11.293 208.443 10.875C208.186 10.4531 207.777 10.2422 207.219 10.2422C206.664 10.2422 206.26 10.4512 206.006 10.8691C205.752 11.2871 205.621 11.9297 205.613 12.7969V14.5312C205.613 15.4531 205.746 16.1348 206.012 16.5762C206.281 17.0137 206.688 17.2324 207.23 17.2324C207.766 17.2324 208.162 17.0254 208.42 16.6113C208.682 16.1973 208.818 15.5449 208.83 14.6543V12.8789ZM217.074 14.1973C216.109 13.9199 215.406 13.5801 214.965 13.1777C214.527 12.7715 214.309 12.2715 214.309 11.6777C214.309 11.0059 214.576 10.4512 215.111 10.0137C215.65 9.57227 216.35 9.35156 217.209 9.35156C217.795 9.35156 218.316 9.46484 218.773 9.69141C219.234 9.91797 219.59 10.2305 219.84 10.6289C220.094 11.0273 220.221 11.4629 220.221 11.9355H219.09C219.09 11.4199 218.926 11.0156 218.598 10.7227C218.27 10.4258 217.807 10.2773 217.209 10.2773C216.654 10.2773 216.221 10.4004 215.908 10.6465C215.6 10.8887 215.445 11.2266 215.445 11.6602C215.445 12.0078 215.592 12.3027 215.885 12.5449C216.182 12.7832 216.684 13.002 217.391 13.2012C218.102 13.4004 218.656 13.6211 219.055 13.8633C219.457 14.1016 219.754 14.3809 219.945 14.7012C220.141 15.0215 220.238 15.3984 220.238 15.832C220.238 16.5234 219.969 17.0781 219.43 17.4961C218.891 17.9102 218.17 18.1172 217.268 18.1172C216.682 18.1172 216.135 18.0059 215.627 17.7832C215.119 17.5566 214.727 17.248 214.449 16.8574C214.176 16.4668 214.039 16.0234 214.039 15.5273H215.17C215.17 16.043 215.359 16.4512 215.738 16.752C216.121 17.0488 216.631 17.1973 217.268 17.1973C217.861 17.1973 218.316 17.0762 218.633 16.834C218.949 16.5918 219.107 16.2617 219.107 15.8438C219.107 15.4258 218.961 15.1035 218.668 14.877C218.375 14.6465 217.844 14.4199 217.074 14.1973ZM227.58 10.3945H224.838V18H223.719V10.3945H220.982V9.46875H227.58V10.3945ZM234.957 15.293C234.852 16.1953 234.518 16.8926 233.955 17.3848C233.396 17.873 232.652 18.1172 231.723 18.1172C230.715 18.1172 229.906 17.7559 229.297 17.0332C228.691 16.3105 228.389 15.3438 228.389 14.1328V13.3125C228.389 12.5195 228.529 11.8223 228.811 11.2207C229.096 10.6191 229.498 10.1582 230.018 9.83789C230.537 9.51367 231.139 9.35156 231.822 9.35156C232.729 9.35156 233.455 9.60547 234.002 10.1133C234.549 10.6172 234.867 11.3164 234.957 12.2109H233.826C233.729 11.5312 233.516 11.0391 233.188 10.7344C232.863 10.4297 232.408 10.2773 231.822 10.2773C231.104 10.2773 230.539 10.543 230.129 11.0742C229.723 11.6055 229.52 12.3613 229.52 13.3418V14.168C229.52 15.0938 229.713 15.8301 230.1 16.377C230.486 16.9238 231.027 17.1973 231.723 17.1973C232.348 17.1973 232.826 17.0566 233.158 16.7754C233.494 16.4902 233.717 15.9961 233.826 15.293H234.957Z" fill="#ABB4BB"/>
<path d="M41.5 21C45.0899 21 48 18.0899 48 14.5C48 10.9101 45.0899 8 41.5 8C37.9101 8 35 10.9101 35 14.5C35 18.0899 37.9101 21 41.5 21Z" stroke="#AFDFFF" stroke-width="2"/>
<path fill-rule="evenodd" clip-rule="evenodd" d="M25.5 71.5H275.5V97.5H25.5V71.5Z" fill="white" stroke="#AFDFFF"/>
<path d="M61.2852 85.1348H62.4688V86.0195H61.2852V88H60.1953V86.0195H56.3105V85.3809L60.1309 79.4688H61.2852V85.1348ZM57.541 85.1348H60.1953V80.9512L60.0664 81.1855L57.541 85.1348Z" fill="#ABB4BB"/>
<path d="M82.5527 84.0098C82.5527 84.8457 82.4121 85.5762 82.1309 86.2012C81.8496 86.8223 81.4512 87.2969 80.9355 87.625C80.4199 87.9531 79.8184 88.1172 79.1309 88.1172C78.459 88.1172 77.8633 87.9531 77.3438 87.625C76.8242 87.293 76.4199 86.8223 76.1309 86.2129C75.8457 85.5996 75.6992 84.8906 75.6914 84.0859V83.4707C75.6914 82.6504 75.834 81.9258 76.1191 81.2969C76.4043 80.668 76.8066 80.1875 77.3262 79.8555C77.8496 79.5195 78.4473 79.3516 79.1191 79.3516C79.8027 79.3516 80.4043 79.5176 80.9238 79.8496C81.4473 80.1777 81.8496 80.6562 82.1309 81.2852C82.4121 81.9102 82.5527 82.6387 82.5527 83.4707V84.0098ZM81.4336 83.459C81.4336 82.4473 81.2305 81.6719 80.8242 81.1328C80.418 80.5898 79.8496 80.3184 79.1191 80.3184C78.4082 80.3184 77.8477 80.5898 77.4375 81.1328C77.0312 81.6719 76.8223 82.4219 76.8105 83.3828V84.0098C76.8105 84.9902 77.0156 85.7617 77.4258 86.3242C77.8398 86.8828 78.4082 87.1621 79.1309 87.1621C79.8574 87.1621 80.4199 86.8984 80.8184 86.3711C81.2168 85.8398 81.4219 85.0801 81.4336 84.0918V83.459ZM86.8945 82.7383L88.9395 79.4688H90.2637L87.5684 83.6992L90.3281 88H88.9922L86.8945 84.6719L84.7852 88H83.4551L86.2207 83.6992L83.5195 79.4688H84.8379L86.8945 82.7383ZM91.0488 84.7773C91.0488 83.8047 91.2793 83.0234 91.7402 82.4336C92.2012 81.8398 92.8047 81.543 93.5508 81.543C94.293 81.543 94.8809 81.7969 95.3145 82.3047V79H96.3984V88H95.4023L95.3496 87.3203C94.916 87.8516 94.3125 88.1172 93.5391 88.1172C92.8047 88.1172 92.2051 87.8164 91.7402 87.2148C91.2793 86.6133 91.0488 85.8281 91.0488 84.8594V84.7773ZM92.1328 84.9004C92.1328 85.6191 92.2812 86.1816 92.5781 86.5879C92.875 86.9941 93.2852 87.1973 93.8086 87.1973C94.4961 87.1973 94.998 86.8887 95.3145 86.2715V83.3594C94.9902 82.7617 94.4922 82.4629 93.8203 82.4629C93.2891 82.4629 92.875 82.668 92.5781 83.0781C92.2812 83.4883 92.1328 84.0957 92.1328 84.9004ZM103.564 88H97.9746V87.2207L100.928 83.9395C101.365 83.4434 101.666 83.041 101.83 82.7324C101.998 82.4199 102.082 82.0977 102.082 81.7656C102.082 81.3203 101.947 80.9551 101.678 80.6699C101.408 80.3848 101.049 80.2422 100.6 80.2422C100.061 80.2422 99.6406 80.3965 99.3398 80.7051C99.043 81.0098 98.8945 81.4355 98.8945 81.9824H97.8105C97.8105 81.1973 98.0625 80.5625 98.5664 80.0781C99.0742 79.5938 99.752 79.3516 100.6 79.3516C101.393 79.3516 102.02 79.5605 102.48 79.9785C102.941 80.3926 103.172 80.9453 103.172 81.6367C103.172 82.4766 102.637 83.4766 101.566 84.6367L99.2812 87.1152H103.564V88ZM104.871 87.4316C104.871 87.2441 104.926 87.0879 105.035 86.9629C105.148 86.8379 105.316 86.7754 105.539 86.7754C105.762 86.7754 105.93 86.8379 106.043 86.9629C106.16 87.0879 106.219 87.2441 106.219 87.4316C106.219 87.6113 106.16 87.7617 106.043 87.8828C105.93 88.0039 105.762 88.0645 105.539 88.0645C105.316 88.0645 105.148 88.0039 105.035 87.8828C104.926 87.7617 104.871 87.6113 104.871 87.4316ZM107.432 87.4316C107.432 87.2441 107.486 87.0879 107.596 86.9629C107.709 86.8379 107.877 86.7754 108.1 86.7754C108.322 86.7754 108.49 86.8379 108.604 86.9629C108.721 87.0879 108.779 87.2441 108.779 87.4316C108.779 87.6113 108.721 87.7617 108.604 87.8828C108.49 88.0039 108.322 88.0645 108.1 88.0645C107.877 88.0645 107.709 88.0039 107.596 87.8828C107.486 87.7617 107.432 87.6113 107.432 87.4316ZM109.863 87.4316C109.863 87.2441 109.918 87.0879 110.027 86.9629C110.141 86.8379 110.309 86.7754 110.531 86.7754C110.754 86.7754 110.922 86.8379 111.035 86.9629C111.152 87.0879 111.211 87.2441 111.211 87.4316C111.211 87.6113 111.152 87.7617 111.035 87.8828C110.922 88.0039 110.754 88.0645 110.531 88.0645C110.309 88.0645 110.141 88.0039 110.027 87.8828C109.918 87.7617 109.863 87.6113 109.863 87.4316ZM113.021 88V79.4688H115.43C116.172 79.4688 116.828 79.6328 117.398 79.9609C117.969 80.2891 118.408 80.7559 118.717 81.3613C119.029 81.9668 119.188 82.6621 119.191 83.4473V83.9922C119.191 84.7969 119.035 85.502 118.723 86.1074C118.414 86.7129 117.971 87.1777 117.393 87.502C116.818 87.8262 116.148 87.9922 115.383 88H113.021ZM114.146 80.3945V87.0801H115.33C116.197 87.0801 116.871 86.8105 117.352 86.2715C117.836 85.7324 118.078 84.9648 118.078 83.9688V83.4707C118.078 82.502 117.85 81.75 117.393 81.2148C116.939 80.6758 116.295 80.4023 115.459 80.3945H114.146ZM125.965 84.3613C125.965 85.6309 125.748 86.5742 125.314 87.1914C124.881 87.8086 124.203 88.1172 123.281 88.1172C122.371 88.1172 121.697 87.8164 121.26 87.2148C120.822 86.6094 120.596 85.707 120.58 84.5078V83.0605C120.58 81.8066 120.797 80.875 121.23 80.2656C121.664 79.6562 122.344 79.3516 123.27 79.3516C124.188 79.3516 124.863 79.6465 125.297 80.2363C125.73 80.8223 125.953 81.7285 125.965 82.9551V84.3613ZM124.881 82.8789C124.881 81.9609 124.752 81.293 124.494 80.875C124.236 80.4531 123.828 80.2422 123.27 80.2422C122.715 80.2422 122.311 80.4512 122.057 80.8691C121.803 81.2871 121.672 81.9297 121.664 82.7969V84.5312C121.664 85.4531 121.797 86.1348 122.062 86.5762C122.332 87.0137 122.738 87.2324 123.281 87.2324C123.816 87.2324 124.213 87.0254 124.471 86.6113C124.732 86.1973 124.869 85.5449 124.881 84.6543V82.8789ZM130.459 86.5059L132.896 79.4688H134.127L130.963 88H129.967L126.809 79.4688H128.033L130.459 86.5059ZM139.57 85.1348H140.754V86.0195H139.57V88H138.48V86.0195H134.596V85.3809L138.416 79.4688H139.57V85.1348ZM135.826 85.1348H138.48V80.9512L138.352 81.1855L135.826 85.1348Z" fill="#ABB4BB"/>
<path d="M173.059 84.3613C173.059 85.6309 172.842 86.5742 172.408 87.1914C171.975 87.8086 171.297 88.1172 170.375 88.1172C169.465 88.1172 168.791 87.8164 168.354 87.2148C167.916 86.6094 167.689 85.707 167.674 84.5078V83.0605C167.674 81.8066 167.891 80.875 168.324 80.2656C168.758 79.6562 169.438 79.3516 170.363 79.3516C171.281 79.3516 171.957 79.6465 172.391 80.2363C172.824 80.8223 173.047 81.7285 173.059 82.9551V84.3613ZM171.975 82.8789C171.975 81.9609 171.846 81.293 171.588 80.875C171.33 80.4531 170.922 80.2422 170.363 80.2422C169.809 80.2422 169.404 80.4512 169.15 80.8691C168.896 81.2871 168.766 81.9297 168.758 82.7969V84.5312C168.758 85.4531 168.891 86.1348 169.156 86.5762C169.426 87.0137 169.832 87.2324 170.375 87.2324C170.91 87.2324 171.307 87.0254 171.564 86.6113C171.826 86.1973 171.963 85.5449 171.975 84.6543V82.8789ZM174.582 87.4316C174.582 87.2441 174.637 87.0879 174.746 86.9629C174.859 86.8379 175.027 86.7754 175.25 86.7754C175.473 86.7754 175.641 86.8379 175.754 86.9629C175.871 87.0879 175.93 87.2441 175.93 87.4316C175.93 87.6113 175.871 87.7617 175.754 87.8828C175.641 88.0039 175.473 88.0645 175.25 88.0645C175.027 88.0645 174.859 88.0039 174.746 87.8828C174.637 87.7617 174.582 87.6113 174.582 87.4316ZM182.961 84.3613C182.961 85.6309 182.744 86.5742 182.311 87.1914C181.877 87.8086 181.199 88.1172 180.277 88.1172C179.367 88.1172 178.693 87.8164 178.256 87.2148C177.818 86.6094 177.592 85.707 177.576 84.5078V83.0605C177.576 81.8066 177.793 80.875 178.227 80.2656C178.66 79.6562 179.34 79.3516 180.266 79.3516C181.184 79.3516 181.859 79.6465 182.293 80.2363C182.727 80.8223 182.949 81.7285 182.961 82.9551V84.3613ZM181.877 82.8789C181.877 81.9609 181.748 81.293 181.49 80.875C181.232 80.4531 180.824 80.2422 180.266 80.2422C179.711 80.2422 179.307 80.4512 179.053 80.8691C178.799 81.2871 178.668 81.9297 178.66 82.7969V84.5312C178.66 85.4531 178.793 86.1348 179.059 86.5762C179.328 87.0137 179.734 87.2324 180.277 87.2324C180.812 87.2324 181.209 87.0254 181.467 86.6113C181.729 86.1973 181.865 85.5449 181.877 84.6543V82.8789ZM185.926 83.207H186.74C187.252 83.1992 187.654 83.0645 187.947 82.8027C188.24 82.541 188.387 82.1875 188.387 81.7422C188.387 80.7422 187.889 80.2422 186.893 80.2422C186.424 80.2422 186.049 80.377 185.768 80.6465C185.49 80.9121 185.352 81.2656 185.352 81.707H184.268C184.268 81.0312 184.514 80.4707 185.006 80.0254C185.502 79.5762 186.131 79.3516 186.893 79.3516C187.697 79.3516 188.328 79.5645 188.785 79.9902C189.242 80.416 189.471 81.0078 189.471 81.7656C189.471 82.1367 189.35 82.4961 189.107 82.8438C188.869 83.1914 188.543 83.4512 188.129 83.623C188.598 83.7715 188.959 84.0176 189.213 84.3613C189.471 84.7051 189.6 85.125 189.6 85.6211C189.6 86.3867 189.35 86.9941 188.85 87.4434C188.35 87.8926 187.699 88.1172 186.898 88.1172C186.098 88.1172 185.445 87.9004 184.941 87.4668C184.441 87.0332 184.191 86.4609 184.191 85.75H185.281C185.281 86.1992 185.428 86.5586 185.721 86.8281C186.014 87.0977 186.406 87.2324 186.898 87.2324C187.422 87.2324 187.822 87.0957 188.1 86.8223C188.377 86.5488 188.516 86.1562 188.516 85.6445C188.516 85.1484 188.363 84.7676 188.059 84.502C187.754 84.2363 187.314 84.0996 186.74 84.0918H185.926V83.207ZM196.438 84.3613C196.438 85.6309 196.221 86.5742 195.787 87.1914C195.354 87.8086 194.676 88.1172 193.754 88.1172C192.844 88.1172 192.17 87.8164 191.732 87.2148C191.295 86.6094 191.068 85.707 191.053 84.5078V83.0605C191.053 81.8066 191.27 80.875 191.703 80.2656C192.137 79.6562 192.816 79.3516 193.742 79.3516C194.66 79.3516 195.336 79.6465 195.77 80.2363C196.203 80.8223 196.426 81.7285 196.438 82.9551V84.3613ZM195.354 82.8789C195.354 81.9609 195.225 81.293 194.967 80.875C194.709 80.4531 194.301 80.2422 193.742 80.2422C193.188 80.2422 192.783 80.4512 192.529 80.8691C192.275 81.2871 192.145 81.9297 192.137 82.7969V84.5312C192.137 85.4531 192.27 86.1348 192.535 86.5762C192.805 87.0137 193.211 87.2324 193.754 87.2324C194.289 87.2324 194.686 87.0254 194.943 86.6113C195.205 86.1973 195.342 85.5449 195.354 84.6543V82.8789ZM203.176 84.3613C203.176 85.6309 202.959 86.5742 202.525 87.1914C202.092 87.8086 201.414 88.1172 200.492 88.1172C199.582 88.1172 198.908 87.8164 198.471 87.2148C198.033 86.6094 197.807 85.707 197.791 84.5078V83.0605C197.791 81.8066 198.008 80.875 198.441 80.2656C198.875 79.6562 199.555 79.3516 200.48 79.3516C201.398 79.3516 202.074 79.6465 202.508 80.2363C202.941 80.8223 203.164 81.7285 203.176 82.9551V84.3613ZM202.092 82.8789C202.092 81.9609 201.963 81.293 201.705 80.875C201.447 80.4531 201.039 80.2422 200.48 80.2422C199.926 80.2422 199.521 80.4512 199.268 80.8691C199.014 81.2871 198.883 81.9297 198.875 82.7969V84.5312C198.875 85.4531 199.008 86.1348 199.273 86.5762C199.543 87.0137 199.949 87.2324 200.492 87.2324C201.027 87.2324 201.424 87.0254 201.682 86.6113C201.943 86.1973 202.08 85.5449 202.092 84.6543V82.8789ZM209.914 84.3613C209.914 85.6309 209.697 86.5742 209.264 87.1914C208.83 87.8086 208.152 88.1172 207.23 88.1172C206.32 88.1172 205.646 87.8164 205.209 87.2148C204.771 86.6094 204.545 85.707 204.529 84.5078V83.0605C204.529 81.8066 204.746 80.875 205.18 80.2656C205.613 79.6562 206.293 79.3516 207.219 79.3516C208.137 79.3516 208.812 79.6465 209.246 80.2363C209.68 80.8223 209.902 81.7285 209.914 82.9551V84.3613ZM208.83 82.8789C208.83 81.9609 208.701 81.293 208.443 80.875C208.186 80.4531 207.777 80.2422 207.219 80.2422C206.664 80.2422 206.26 80.4512 206.006 80.8691C205.752 81.2871 205.621 81.9297 205.613 82.7969V84.5312C205.613 85.4531 205.746 86.1348 206.012 86.5762C206.281 87.0137 206.688 87.2324 207.23 87.2324C207.766 87.2324 208.162 87.0254 208.42 86.6113C208.682 86.1973 208.818 85.5449 208.83 84.6543V82.8789ZM216.652 84.3613C216.652 85.6309 216.436 86.5742 216.002 87.1914C215.568 87.8086 214.891 88.1172 213.969 88.1172C213.059 88.1172 212.385 87.8164 211.947 87.2148C211.51 86.6094 211.283 85.707 211.268 84.5078V83.0605C211.268 81.8066 211.484 80.875 211.918 80.2656C212.352 79.6562 213.031 79.3516 213.957 79.3516C214.875 79.3516 215.551 79.6465 215.984 80.2363C216.418 80.8223 216.641 81.7285 216.652 82.9551V84.3613ZM215.568 82.8789C215.568 81.9609 215.439 81.293 215.182 80.875C214.924 80.4531 214.516 80.2422 213.957 80.2422C213.402 80.2422 212.998 80.4512 212.744 80.8691C212.49 81.2871 212.359 81.9297 212.352 82.7969V84.5312C212.352 85.4531 212.484 86.1348 212.75 86.5762C213.02 87.0137 213.426 87.2324 213.969 87.2324C214.504 87.2324 214.9 87.0254 215.158 86.6113C215.42 86.1973 215.557 85.5449 215.568 84.6543V82.8789ZM223.812 84.1973C222.848 83.9199 222.145 83.5801 221.703 83.1777C221.266 82.7715 221.047 82.2715 221.047 81.6777C221.047 81.0059 221.314 80.4512 221.85 80.0137C222.389 79.5723 223.088 79.3516 223.947 79.3516C224.533 79.3516 225.055 79.4648 225.512 79.6914C225.973 79.918 226.328 80.2305 226.578 80.6289C226.832 81.0273 226.959 81.4629 226.959 81.9355H225.828C225.828 81.4199 225.664 81.0156 225.336 80.7227C225.008 80.4258 224.545 80.2773 223.947 80.2773C223.393 80.2773 222.959 80.4004 222.646 80.6465C222.338 80.8887 222.184 81.2266 222.184 81.6602C222.184 82.0078 222.33 82.3027 222.623 82.5449C222.92 82.7832 223.422 83.002 224.129 83.2012C224.84 83.4004 225.395 83.6211 225.793 83.8633C226.195 84.1016 226.492 84.3809 226.684 84.7012C226.879 85.0215 226.977 85.3984 226.977 85.832C226.977 86.5234 226.707 87.0781 226.168 87.4961C225.629 87.9102 224.908 88.1172 224.006 88.1172C223.42 88.1172 222.873 88.0059 222.365 87.7832C221.857 87.5566 221.465 87.248 221.188 86.8574C220.914 86.4668 220.777 86.0234 220.777 85.5273H221.908C221.908 86.043 222.098 86.4512 222.477 86.752C222.859 87.0488 223.369 87.1973 224.006 87.1973C224.6 87.1973 225.055 87.0762 225.371 86.834C225.688 86.5918 225.846 86.2617 225.846 85.8438C225.846 85.4258 225.699 85.1035 225.406 84.877C225.113 84.6465 224.582 84.4199 223.812 84.1973ZM234.318 80.3945H231.576V88H230.457V80.3945H227.721V79.4688H234.318V80.3945ZM241.695 85.293C241.59 86.1953 241.256 86.8926 240.693 87.3848C240.135 87.873 239.391 88.1172 238.461 88.1172C237.453 88.1172 236.645 87.7559 236.035 87.0332C235.43 86.3105 235.127 85.3438 235.127 84.1328V83.3125C235.127 82.5195 235.268 81.8223 235.549 81.2207C235.834 80.6191 236.236 80.1582 236.756 79.8379C237.275 79.5137 237.877 79.3516 238.561 79.3516C239.467 79.3516 240.193 79.6055 240.74 80.1133C241.287 80.6172 241.605 81.3164 241.695 82.2109H240.564C240.467 81.5312 240.254 81.0391 239.926 80.7344C239.602 80.4297 239.146 80.2773 238.561 80.2773C237.842 80.2773 237.277 80.543 236.867 81.0742C236.461 81.6055 236.258 82.3613 236.258 83.3418V84.168C236.258 85.0938 236.451 85.8301 236.838 86.377C237.225 86.9238 237.766 87.1973 238.461 87.1973C239.086 87.1973 239.564 87.0566 239.896 86.7754C240.232 86.4902 240.455 85.9961 240.564 85.293H241.695Z" fill="#ABB4BB"/>
<path d="M41.5 91C45.0899 91 48 88.0899 48 84.5C48 80.9101 45.0899 78 41.5 78C37.9101 78 35 80.9101 35 84.5C35 88.0899 37.9101 91 41.5 91Z" stroke="#AFDFFF" stroke-width="2"/>
<g filter="url(#filter0_d)">
<path d="M4 21H298V53H4V21Z" fill="black"/>
</g>
<path fill-rule="evenodd" clip-rule="evenodd" d="M4.5 21.5H297.5V52.5H4.5V21.5Z" fill="#D9F0FF" stroke="#3098DC"/>
<path d="M48.3984 42H40.9453V40.9609L44.8828 36.5859C45.4661 35.9245 45.8672 35.388 46.0859 34.9766C46.3099 34.5599 46.4219 34.1302 46.4219 33.6875C46.4219 33.0938 46.2422 32.6068 45.8828 32.2266C45.5234 31.8464 45.0443 31.6562 44.4453 31.6562C43.7266 31.6562 43.1667 31.862 42.7656 32.2734C42.3698 32.6797 42.1719 33.2474 42.1719 33.9766H40.7266C40.7266 32.9297 41.0625 32.0833 41.7344 31.4375C42.4115 30.7917 43.3151 30.4688 44.4453 30.4688C45.5026 30.4688 46.3385 30.7474 46.9531 31.3047C47.5677 31.8568 47.875 32.5938 47.875 33.5156C47.875 34.6354 47.1615 35.9688 45.7344 37.5156L42.6875 40.8203H48.3984V42Z" fill="#4A4A4A"/>
<path d="M72.0703 36.6797C72.0703 37.7943 71.8828 38.7682 71.5078 39.6016C71.1328 40.4297 70.6016 41.0625 69.9141 41.5C69.2266 41.9375 68.4245 42.1562 67.5078 42.1562C66.612 42.1562 65.8177 41.9375 65.125 41.5C64.4323 41.0573 63.8932 40.4297 63.5078 39.6172C63.1276 38.7995 62.9323 37.8542 62.9219 36.7812V35.9609C62.9219 34.8672 63.112 33.901 63.4922 33.0625C63.8724 32.224 64.4089 31.5833 65.1016 31.1406C65.7995 30.6927 66.5964 30.4688 67.4922 30.4688C68.4036 30.4688 69.2057 30.6901 69.8984 31.1328C70.5964 31.5703 71.1328 32.2083 71.5078 33.0469C71.8828 33.8802 72.0703 34.8516 72.0703 35.9609V36.6797ZM70.5781 35.9453C70.5781 34.5964 70.3073 33.5625 69.7656 32.8438C69.224 32.1198 68.4661 31.7578 67.4922 31.7578C66.5443 31.7578 65.7969 32.1198 65.25 32.8438C64.7083 33.5625 64.4297 34.5625 64.4141 35.8438V36.6797C64.4141 37.987 64.6875 39.0156 65.2344 39.7656C65.7865 40.5104 66.5443 40.8828 67.5078 40.8828C68.4766 40.8828 69.2266 40.5312 69.7578 39.8281C70.2891 39.1198 70.5625 38.1068 70.5781 36.7891V35.9453ZM77.8594 34.9844L80.5859 30.625H82.3516L78.7578 36.2656L82.4375 42H80.6562L77.8594 37.5625L75.0469 42H73.2734L76.9609 36.2656L73.3594 30.625H75.1172L77.8594 34.9844ZM87.2578 42.1562C86.112 42.1562 85.1797 41.7812 84.4609 41.0312C83.7422 40.276 83.3828 39.2682 83.3828 38.0078V37.7422C83.3828 36.9036 83.5417 36.1562 83.8594 35.5C84.1823 34.8385 84.6302 34.3229 85.2031 33.9531C85.7812 33.5781 86.4062 33.3906 87.0781 33.3906C88.1771 33.3906 89.0312 33.7526 89.6406 34.4766C90.25 35.2005 90.5547 36.237 90.5547 37.5859V38.1875H84.8281C84.849 39.0208 85.0911 39.6953 85.5547 40.2109C86.0234 40.7214 86.6172 40.9766 87.3359 40.9766C87.8464 40.9766 88.2786 40.8724 88.6328 40.6641C88.987 40.4557 89.2969 40.1797 89.5625 39.8359L90.4453 40.5234C89.737 41.612 88.6745 42.1562 87.2578 42.1562ZM87.0781 34.5781C86.4948 34.5781 86.0052 34.7917 85.6094 35.2188C85.2135 35.6406 84.9688 36.2344 84.875 37H89.1094V36.8906C89.0677 36.1562 88.8698 35.5885 88.5156 35.1875C88.1615 34.7812 87.6823 34.5781 87.0781 34.5781ZM99.4297 31.4375L94.7188 42H93.2031L97.8984 31.8125H91.7422V30.625H99.4297V31.4375ZM101.281 41.2422C101.281 40.9922 101.354 40.7839 101.5 40.6172C101.651 40.4505 101.875 40.3672 102.172 40.3672C102.469 40.3672 102.693 40.4505 102.844 40.6172C103 40.7839 103.078 40.9922 103.078 41.2422C103.078 41.4818 103 41.6823 102.844 41.8438C102.693 42.0052 102.469 42.0859 102.172 42.0859C101.875 42.0859 101.651 42.0052 101.5 41.8438C101.354 41.6823 101.281 41.4818 101.281 41.2422ZM104.695 41.2422C104.695 40.9922 104.768 40.7839 104.914 40.6172C105.065 40.4505 105.289 40.3672 105.586 40.3672C105.883 40.3672 106.107 40.4505 106.258 40.6172C106.414 40.7839 106.492 40.9922 106.492 41.2422C106.492 41.4818 106.414 41.6823 106.258 41.8438C106.107 42.0052 105.883 42.0859 105.586 42.0859C105.289 42.0859 105.065 42.0052 104.914 41.8438C104.768 41.6823 104.695 41.4818 104.695 41.2422ZM107.938 41.2422C107.938 40.9922 108.01 40.7839 108.156 40.6172C108.307 40.4505 108.531 40.3672 108.828 40.3672C109.125 40.3672 109.349 40.4505 109.5 40.6172C109.656 40.7839 109.734 40.9922 109.734 41.2422C109.734 41.4818 109.656 41.6823 109.5 41.8438C109.349 42.0052 109.125 42.0859 108.828 42.0859C108.531 42.0859 108.307 42.0052 108.156 41.8438C108.01 41.6823 107.938 41.4818 107.938 41.2422ZM112.148 42V30.625H115.867C117.102 30.625 118.029 30.8802 118.648 31.3906C119.273 31.901 119.586 32.6562 119.586 33.6562C119.586 34.1875 119.435 34.6589 119.133 35.0703C118.831 35.4766 118.419 35.7917 117.898 36.0156C118.513 36.1875 118.997 36.5156 119.352 37C119.711 37.4792 119.891 38.0521 119.891 38.7188C119.891 39.7396 119.56 40.5417 118.898 41.125C118.237 41.7083 117.302 42 116.094 42H112.148ZM113.648 36.6797V40.7734H116.125C116.823 40.7734 117.372 40.5938 117.773 40.2344C118.18 39.8698 118.383 39.3698 118.383 38.7344C118.383 37.3646 117.638 36.6797 116.148 36.6797H113.648ZM113.648 35.4766H115.914C116.57 35.4766 117.094 35.3125 117.484 34.9844C117.88 34.6562 118.078 34.2109 118.078 33.6484C118.078 33.0234 117.896 32.5703 117.531 32.2891C117.167 32.0026 116.612 31.8594 115.867 31.8594H113.648V35.4766ZM128.875 37.1484C128.875 38.8411 128.586 40.099 128.008 40.9219C127.43 41.7448 126.526 42.1562 125.297 42.1562C124.083 42.1562 123.185 41.7552 122.602 40.9531C122.018 40.1458 121.716 38.9427 121.695 37.3438V35.4141C121.695 33.7422 121.984 32.5 122.562 31.6875C123.141 30.875 124.047 30.4688 125.281 30.4688C126.505 30.4688 127.406 30.862 127.984 31.6484C128.562 32.4297 128.859 33.638 128.875 35.2734V37.1484ZM127.43 35.1719C127.43 33.9479 127.258 33.0573 126.914 32.5C126.57 31.9375 126.026 31.6562 125.281 31.6562C124.542 31.6562 124.003 31.9349 123.664 32.4922C123.326 33.0495 123.151 33.9062 123.141 35.0625V37.375C123.141 38.6042 123.318 39.513 123.672 40.1016C124.031 40.6849 124.573 40.9766 125.297 40.9766C126.01 40.9766 126.539 40.7005 126.883 40.1484C127.232 39.5964 127.414 38.7266 127.43 37.5391V35.1719ZM136.094 42C136.01 41.8333 135.943 41.5365 135.891 41.1094C135.219 41.8073 134.417 42.1562 133.484 42.1562C132.651 42.1562 131.966 41.9219 131.43 41.4531C130.898 40.9792 130.633 40.3802 130.633 39.6562C130.633 38.776 130.966 38.0938 131.633 37.6094C132.305 37.1198 133.247 36.875 134.461 36.875H135.867V36.2109C135.867 35.7057 135.716 35.3047 135.414 35.0078C135.112 34.7057 134.667 34.5547 134.078 34.5547C133.562 34.5547 133.13 34.6849 132.781 34.9453C132.432 35.2057 132.258 35.5208 132.258 35.8906H130.805C130.805 35.4688 130.953 35.0625 131.25 34.6719C131.552 34.276 131.958 33.9635 132.469 33.7344C132.984 33.5052 133.549 33.3906 134.164 33.3906C135.138 33.3906 135.901 33.6354 136.453 34.125C137.005 34.6094 137.292 35.2786 137.312 36.1328V40.0234C137.312 40.7995 137.411 41.4167 137.609 41.875V42H136.094ZM133.695 40.8984C134.148 40.8984 134.578 40.7812 134.984 40.5469C135.391 40.3125 135.685 40.0078 135.867 39.6328V37.8984H134.734C132.964 37.8984 132.078 38.4167 132.078 39.4531C132.078 39.9062 132.229 40.2604 132.531 40.5156C132.833 40.7708 133.221 40.8984 133.695 40.8984ZM144.18 42H142.727V32.3672L139.812 33.4375V32.125L143.953 30.5703H144.18V42Z" fill="#4A4A4A"/>
<path d="M178.078 37.1484C178.078 38.8411 177.789 40.099 177.211 40.9219C176.633 41.7448 175.729 42.1562 174.5 42.1562C173.286 42.1562 172.388 41.7552 171.805 40.9531C171.221 40.1458 170.919 38.9427 170.898 37.3438V35.4141C170.898 33.7422 171.188 32.5 171.766 31.6875C172.344 30.875 173.25 30.4688 174.484 30.4688C175.708 30.4688 176.609 30.862 177.188 31.6484C177.766 32.4297 178.062 33.638 178.078 35.2734V37.1484ZM176.633 35.1719C176.633 33.9479 176.461 33.0573 176.117 32.5C175.773 31.9375 175.229 31.6562 174.484 31.6562C173.745 31.6562 173.206 31.9349 172.867 32.4922C172.529 33.0495 172.354 33.9062 172.344 35.0625V37.375C172.344 38.6042 172.521 39.513 172.875 40.1016C173.234 40.6849 173.776 40.9766 174.5 40.9766C175.214 40.9766 175.742 40.7005 176.086 40.1484C176.435 39.5964 176.617 38.7266 176.633 37.5391V35.1719ZM180.109 41.2422C180.109 40.9922 180.182 40.7839 180.328 40.6172C180.479 40.4505 180.703 40.3672 181 40.3672C181.297 40.3672 181.521 40.4505 181.672 40.6172C181.828 40.7839 181.906 40.9922 181.906 41.2422C181.906 41.4818 181.828 41.6823 181.672 41.8438C181.521 42.0052 181.297 42.0859 181 42.0859C180.703 42.0859 180.479 42.0052 180.328 41.8438C180.182 41.6823 180.109 41.4818 180.109 41.2422ZM191.281 37.1484C191.281 38.8411 190.992 40.099 190.414 40.9219C189.836 41.7448 188.932 42.1562 187.703 42.1562C186.49 42.1562 185.591 41.7552 185.008 40.9531C184.424 40.1458 184.122 38.9427 184.102 37.3438V35.4141C184.102 33.7422 184.391 32.5 184.969 31.6875C185.547 30.875 186.453 30.4688 187.688 30.4688C188.911 30.4688 189.812 30.862 190.391 31.6484C190.969 32.4297 191.266 33.638 191.281 35.2734V37.1484ZM189.836 35.1719C189.836 33.9479 189.664 33.0573 189.32 32.5C188.977 31.9375 188.432 31.6562 187.688 31.6562C186.948 31.6562 186.409 31.9349 186.07 32.4922C185.732 33.0495 185.557 33.9062 185.547 35.0625V37.375C185.547 38.6042 185.724 39.513 186.078 40.1016C186.438 40.6849 186.979 40.9766 187.703 40.9766C188.417 40.9766 188.945 40.7005 189.289 40.1484C189.638 39.5964 189.82 38.7266 189.836 37.5391V35.1719ZM199.234 38.1797H200.812V39.3594H199.234V42H197.781V39.3594H192.602V38.5078L197.695 30.625H199.234V38.1797ZM194.242 38.1797H197.781V32.6016L197.609 32.9141L194.242 38.1797ZM206.867 42H205.414V32.3672L202.5 33.4375V32.125L206.641 30.5703H206.867V42ZM218.234 37.1484C218.234 38.8411 217.945 40.099 217.367 40.9219C216.789 41.7448 215.885 42.1562 214.656 42.1562C213.443 42.1562 212.544 41.7552 211.961 40.9531C211.378 40.1458 211.076 38.9427 211.055 37.3438V35.4141C211.055 33.7422 211.344 32.5 211.922 31.6875C212.5 30.875 213.406 30.4688 214.641 30.4688C215.865 30.4688 216.766 30.862 217.344 31.6484C217.922 32.4297 218.219 33.638 218.234 35.2734V37.1484ZM216.789 35.1719C216.789 33.9479 216.617 33.0573 216.273 32.5C215.93 31.9375 215.385 31.6562 214.641 31.6562C213.901 31.6562 213.362 31.9349 213.023 32.4922C212.685 33.0495 212.51 33.9062 212.5 35.0625V37.375C212.5 38.6042 212.677 39.513 213.031 40.1016C213.391 40.6849 213.932 40.9766 214.656 40.9766C215.37 40.9766 215.898 40.7005 216.242 40.1484C216.591 39.5964 216.773 38.7266 216.789 37.5391V35.1719ZM227.219 37.1484C227.219 38.8411 226.93 40.099 226.352 40.9219C225.773 41.7448 224.87 42.1562 223.641 42.1562C222.427 42.1562 221.529 41.7552 220.945 40.9531C220.362 40.1458 220.06 38.9427 220.039 37.3438V35.4141C220.039 33.7422 220.328 32.5 220.906 31.6875C221.484 30.875 222.391 30.4688 223.625 30.4688C224.849 30.4688 225.75 30.862 226.328 31.6484C226.906 32.4297 227.203 33.638 227.219 35.2734V37.1484ZM225.773 35.1719C225.773 33.9479 225.602 33.0573 225.258 32.5C224.914 31.9375 224.37 31.6562 223.625 31.6562C222.885 31.6562 222.346 31.9349 222.008 32.4922C221.669 33.0495 221.495 33.9062 221.484 35.0625V37.375C221.484 38.6042 221.661 39.513 222.016 40.1016C222.375 40.6849 222.917 40.9766 223.641 40.9766C224.354 40.9766 224.883 40.7005 225.227 40.1484C225.576 39.5964 225.758 38.7266 225.773 37.5391V35.1719ZM236.203 37.1484C236.203 38.8411 235.914 40.099 235.336 40.9219C234.758 41.7448 233.854 42.1562 232.625 42.1562C231.411 42.1562 230.513 41.7552 229.93 40.9531C229.346 40.1458 229.044 38.9427 229.023 37.3438V35.4141C229.023 33.7422 229.312 32.5 229.891 31.6875C230.469 30.875 231.375 30.4688 232.609 30.4688C233.833 30.4688 234.734 30.862 235.312 31.6484C235.891 32.4297 236.188 33.638 236.203 35.2734V37.1484ZM234.758 35.1719C234.758 33.9479 234.586 33.0573 234.242 32.5C233.898 31.9375 233.354 31.6562 232.609 31.6562C231.87 31.6562 231.331 31.9349 230.992 32.4922C230.654 33.0495 230.479 33.9062 230.469 35.0625V37.375C230.469 38.6042 230.646 39.513 231 40.1016C231.359 40.6849 231.901 40.9766 232.625 40.9766C233.339 40.9766 233.867 40.7005 234.211 40.1484C234.56 39.5964 234.742 38.7266 234.758 37.5391V35.1719ZM245.75 36.9297C244.464 36.5599 243.526 36.1068 242.938 35.5703C242.354 35.0286 242.062 34.362 242.062 33.5703C242.062 32.6745 242.419 31.9349 243.133 31.3516C243.852 30.763 244.784 30.4688 245.93 30.4688C246.711 30.4688 247.406 30.6198 248.016 30.9219C248.63 31.224 249.104 31.6406 249.438 32.1719C249.776 32.7031 249.945 33.2839 249.945 33.9141H248.438C248.438 33.2266 248.219 32.6875 247.781 32.2969C247.344 31.901 246.727 31.7031 245.93 31.7031C245.19 31.7031 244.612 31.8672 244.195 32.1953C243.784 32.5182 243.578 32.9688 243.578 33.5469C243.578 34.0104 243.773 34.4036 244.164 34.7266C244.56 35.0443 245.229 35.3359 246.172 35.6016C247.12 35.8672 247.859 36.1615 248.391 36.4844C248.927 36.8021 249.323 37.1745 249.578 37.6016C249.839 38.0286 249.969 38.5312 249.969 39.1094C249.969 40.0312 249.609 40.7708 248.891 41.3281C248.172 41.8802 247.211 42.1562 246.008 42.1562C245.227 42.1562 244.497 42.0078 243.82 41.7109C243.143 41.4089 242.62 40.9974 242.25 40.4766C241.885 39.9557 241.703 39.3646 241.703 38.7031H243.211C243.211 39.3906 243.464 39.9349 243.969 40.3359C244.479 40.7318 245.159 40.9297 246.008 40.9297C246.799 40.9297 247.406 40.7682 247.828 40.4453C248.25 40.1224 248.461 39.6823 248.461 39.125C248.461 38.5677 248.266 38.138 247.875 37.8359C247.484 37.5286 246.776 37.2266 245.75 36.9297ZM259.758 31.8594H256.102V42H254.609V31.8594H250.961V30.625H259.758V31.8594ZM269.594 38.3906C269.453 39.5938 269.008 40.5234 268.258 41.1797C267.513 41.8307 266.521 42.1562 265.281 42.1562C263.938 42.1562 262.859 41.6745 262.047 40.7109C261.24 39.7474 260.836 38.4583 260.836 36.8438V35.75C260.836 34.6927 261.023 33.763 261.398 32.9609C261.779 32.1589 262.315 31.5443 263.008 31.1172C263.701 30.6849 264.503 30.4688 265.414 30.4688C266.622 30.4688 267.591 30.8073 268.32 31.4844C269.049 32.1562 269.474 33.0885 269.594 34.2812H268.086C267.956 33.375 267.672 32.7188 267.234 32.3125C266.802 31.9062 266.195 31.7031 265.414 31.7031C264.456 31.7031 263.703 32.0573 263.156 32.7656C262.615 33.474 262.344 34.4818 262.344 35.7891V36.8906C262.344 38.125 262.602 39.1068 263.117 39.8359C263.633 40.5651 264.354 40.9297 265.281 40.9297C266.115 40.9297 266.753 40.7422 267.195 40.3672C267.643 39.987 267.94 39.3281 268.086 38.3906H269.594Z" fill="#4A4A4A"/>
<path d="M23.5 45C27.6421 45 31 41.6421 31 37.5C31 33.3579 27.6421 30 23.5 30C19.3579 30 16 33.3579 16 37.5C16 41.6421 19.3579 45 23.5 45Z" stroke="#3098DC" stroke-width="2"/>
<path d="M19 38L21.55 40.55L28 34.904" stroke="#3098DC" stroke-width="2"/>
<defs>
<filter id="filter0_d" x="0" y="19" width="302" height="40" filterUnits="userSpaceOnUse" color-interpolation-filters="sRGB">
<feFlood flood-opacity="0" result="BackgroundImageFix"/>
<feColorMatrix in="SourceAlpha" type="matrix" values="0 0 0 0 0 0 0 0 0 0 0 0 0 0 0 0 0 0 127 0" result="hardAlpha"/>
<feOffset dy="2"/>
<feGaussianBlur stdDeviation="2"/>
<feColorMatrix type="matrix" values="0 0 0 0 0 0 0 0 0 0 0 0 0 0 0 0 0 0 0.123075 0"/>
<feBlend mode="normal" in2="BackgroundImageFix" result="effect1_dropShadow"/>
<feBlend mode="normal" in="SourceGraphic" in2="effect1_dropShadow" result="shape"/>
</filter>
</defs>
</svg>
