<svg width="108" height="85" viewBox="0 0 108 85" fill="none" xmlns="http://www.w3.org/2000/svg">
<path fill-rule="evenodd" clip-rule="evenodd" d="M97.202 84H10.798C9.7885 83.9976 8.82128 83.5944 8.10904 82.879C7.39681 82.1635 6.99788 81.1945 7.00001 80.185V9.815C7.00001 7.708 8.70001 6 10.798 6H97.202C97.7019 6.00105 98.1967 6.10057 98.6581 6.29287C99.1196 6.48517 99.5386 6.76649 99.8913 7.12076C100.244 7.47503 100.523 7.89531 100.714 8.35759C100.904 8.81987 101.001 9.3151 101 9.815V80.185C101 82.292 99.3 84 97.202 84Z" fill="#FEFEFE"/>
<path fill-rule="evenodd" clip-rule="evenodd" d="M97.202 84H10.798C9.7885 83.9976 8.82128 83.5944 8.10904 82.879C7.39681 82.1635 6.99788 81.1945 7.00001 80.185V9.815C7.00001 7.708 8.70001 6 10.798 6H97.202C97.7019 6.00105 98.1967 6.10057 98.6581 6.29287C99.1196 6.48517 99.5386 6.76649 99.8913 7.12076C100.244 7.47503 100.523 7.89531 100.714 8.35759C100.904 8.81987 101.001 9.3151 101 9.815V80.185C101 82.292 99.3 84 97.202 84Z" stroke="#3098DC"/>
<path fill-rule="evenodd" clip-rule="evenodd" d="M105.73 84H2.27C1.568 84 1 83.45 1 82.771V78.23C1 77.549 1.568 77 2.27 77H105.73C106.43 77 107 77.55 107 78.229V82.771C107 83.451 106.43 84 105.73 84" fill="#D9F0FF"/>
<path fill-rule="evenodd" clip-rule="evenodd" d="M105.73 84H2.27C1.568 84 1 83.45 1 82.771V78.23C1 77.549 1.568 77 2.27 77H105.73C106.43 77 107 77.55 107 78.229V82.771C107 83.451 106.43 84 105.73 84V84Z" stroke="#3098DC"/>
<path fill-rule="evenodd" clip-rule="evenodd" d="M11 72H97V11H11V72Z" fill="#FEFEFE"/>
<path fill-rule="evenodd" clip-rule="evenodd" d="M11 72H97V11H11V72Z" stroke="#3098DC"/>
<path d="M90.5 15.5H17.5C16.3954 15.5 15.5 16.3954 15.5 17.5V66.5C15.5 67.6046 16.3954 68.5 17.5 68.5H90.5C91.6046 68.5 92.5 67.6046 92.5 66.5V17.5C92.5 16.3954 91.6046 15.5 90.5 15.5Z" fill="white" stroke="#3098DC"/>
<path fill-rule="evenodd" clip-rule="evenodd" d="M15.5 22.5H92.5V17C92.5 16.6022 92.342 16.2206 92.0607 15.9393C91.7794 15.658 91.3978 15.5 91 15.5H17C16.6022 15.5 16.2206 15.658 15.9393 15.9393C15.658 16.2206 15.5 16.6022 15.5 17V22.5Z" fill="white" stroke="#3098DC"/>
<path d="M19 20C19.5523 20 20 19.5523 20 19C20 18.4477 19.5523 18 19 18C18.4477 18 18 18.4477 18 19C18 19.5523 18.4477 20 19 20Z" fill="#D9F0FF" stroke="#3098DC"/>
<path d="M23.769 20C24.3213 20 24.769 19.5523 24.769 19C24.769 18.4477 24.3213 18 23.769 18C23.2167 18 22.769 18.4477 22.769 19C22.769 19.5523 23.2167 20 23.769 20Z" fill="#D9F0FF" stroke="#3098DC"/>
<path d="M28.538 20C29.0903 20 29.538 19.5523 29.538 19C29.538 18.4477 29.0903 18 28.538 18C27.9857 18 27.538 18.4477 27.538 19C27.538 19.5523 27.9857 20 28.538 20Z" fill="#D9F0FF" stroke="#3098DC"/>
<path d="M27.6044 42.8916H30.9344V44H26.2274V36.8906H27.6044V42.8916ZM37.1014 40.9678C37.1014 41.4235 37.0412 41.8434 36.9208 42.2275C36.8003 42.6117 36.6262 42.9421 36.3983 43.2188C36.1705 43.4954 35.8921 43.7119 35.5634 43.8682C35.2378 44.0212 34.87 44.0977 34.4598 44.0977C34.0497 44.0977 33.6851 44.0212 33.3661 43.8682C33.0471 43.7119 32.7785 43.4954 32.5604 43.2188C32.3423 42.9388 32.1763 42.6084 32.0624 42.2275C31.9484 41.8434 31.8915 41.4235 31.8915 40.9678V39.9326C31.8915 39.4769 31.9484 39.057 32.0624 38.6729C32.1763 38.2887 32.3423 37.9583 32.5604 37.6816C32.7785 37.4017 33.0455 37.1836 33.3612 37.0273C33.6802 36.8711 34.0448 36.793 34.455 36.793C34.8684 36.793 35.2378 36.8711 35.5634 37.0273C35.8921 37.1836 36.1705 37.4017 36.3983 37.6816C36.6262 37.9583 36.8003 38.2887 36.9208 38.6729C37.0412 39.057 37.1014 39.4769 37.1014 39.9326V40.9678ZM35.7098 39.9229C35.7098 39.6331 35.6854 39.3662 35.6366 39.1221C35.591 38.8779 35.5178 38.668 35.4169 38.4922C35.316 38.3164 35.1858 38.1797 35.0262 38.082C34.87 37.9811 34.6796 37.9307 34.455 37.9307C34.2336 37.9307 34.0481 37.9811 33.8983 38.082C33.7486 38.1797 33.6281 38.3164 33.537 38.4922C33.4458 38.668 33.3807 38.8779 33.3417 39.1221C33.3026 39.3662 33.2831 39.6331 33.2831 39.9229V40.9678C33.2831 41.2542 33.3026 41.5195 33.3417 41.7637C33.3807 42.0078 33.4458 42.2194 33.537 42.3984C33.6281 42.5775 33.7486 42.7174 33.8983 42.8184C34.0481 42.9193 34.2352 42.9697 34.4598 42.9697C34.6812 42.9697 34.87 42.9193 35.0262 42.8184C35.1858 42.7174 35.3143 42.5791 35.412 42.4033C35.5129 42.2243 35.5878 42.0127 35.6366 41.7686C35.6854 41.5244 35.7098 41.2575 35.7098 40.9678V39.9229ZM43.0341 43.1699C42.9462 43.2773 42.8257 43.3864 42.6727 43.4971C42.5197 43.6077 42.3374 43.7087 42.1259 43.7998C41.9175 43.8877 41.6831 43.9593 41.4227 44.0146C41.1623 44.07 40.8824 44.0977 40.5829 44.0977C40.1792 44.0977 39.8147 44.026 39.4891 43.8828C39.1636 43.7396 38.8853 43.5329 38.6542 43.2627C38.4231 42.9925 38.244 42.6621 38.1171 42.2715C37.9934 41.8776 37.9315 41.4316 37.9315 40.9336V39.9668C37.9315 39.4688 37.9966 39.0244 38.1268 38.6338C38.2603 38.2399 38.4426 37.9062 38.6737 37.6328C38.9081 37.3594 39.1815 37.151 39.494 37.0078C39.8098 36.8646 40.1516 36.793 40.5194 36.793C40.9198 36.793 41.2681 36.8434 41.5643 36.9443C41.8638 37.0452 42.1161 37.1917 42.3212 37.3838C42.5262 37.5726 42.6858 37.8037 42.7997 38.0771C42.9169 38.3506 42.9934 38.6582 43.0292 39H41.6913C41.6457 38.6354 41.535 38.362 41.3593 38.1797C41.1867 37.9941 40.9182 37.9014 40.5536 37.9014C40.3778 37.9014 40.215 37.9469 40.0653 38.0381C39.9156 38.126 39.7854 38.2562 39.6747 38.4287C39.564 38.6012 39.4761 38.8161 39.411 39.0732C39.3459 39.3271 39.3134 39.6217 39.3134 39.957V40.9336C39.3166 41.5977 39.4273 42.1071 39.6454 42.4619C39.8635 42.8135 40.1971 42.9909 40.6464 42.9941C40.7538 42.9941 40.8596 42.986 40.9637 42.9697C41.0679 42.9535 41.1656 42.9307 41.2567 42.9014C41.3479 42.8721 41.4276 42.8395 41.496 42.8037C41.5676 42.7646 41.6213 42.724 41.6571 42.6816L41.662 41.3926H40.4852V40.3672H43.0292L43.0341 43.1699ZM44.455 36.8906H48.5663V37.999H47.1796V42.8965H48.5663V44H44.455V42.8965H45.8075V37.999H44.455V36.8906ZM54.8456 44H53.4784L51.5009 39.415V44H50.119V36.8906H51.5009L53.4637 41.4561L53.4686 36.8906H54.8456V44ZM65.6464 41.1729L66.1639 36.8906H67.4237L66.4374 44H65.1971L64.5233 39.8008L63.8739 44H62.6337L61.6571 36.8906H62.912L63.4198 41.1436L64.0253 36.8906H65.0067L65.6464 41.1729ZM68.4784 36.8906H72.5897V37.999H71.203V42.8965H72.5897V44H68.4784V42.8965H69.8309V37.999H68.4784V36.8906ZM79.4061 38.0088H77.2137V44H75.8368V38.0088H73.6737V36.8906H79.4061V38.0088ZM84.8798 44H83.5223V40.9189H81.5106V44H80.1483V36.8906H81.5106V39.8057H83.5223V36.8906H84.8798V44ZM29.826 55.1445C29.826 55.0176 29.8033 54.8988 29.7577 54.7881C29.7154 54.6774 29.6405 54.5749 29.5331 54.4805C29.4289 54.3828 29.2906 54.2949 29.118 54.2168C28.9488 54.1354 28.7372 54.0605 28.4833 53.9922C28.174 53.9076 27.8778 53.8018 27.5946 53.6748C27.3147 53.5479 27.0673 53.3949 26.8524 53.2158C26.6376 53.0368 26.465 52.8285 26.3348 52.5908C26.2079 52.3532 26.1444 52.0798 26.1444 51.7705C26.1444 51.471 26.2079 51.1992 26.3348 50.9551C26.4618 50.7109 26.6376 50.5026 26.8622 50.3301C27.0868 50.1576 27.3521 50.0257 27.6581 49.9346C27.9641 49.8402 28.2961 49.793 28.6542 49.793C29.0253 49.793 29.3638 49.8467 29.6698 49.9541C29.979 50.0615 30.2443 50.2129 30.4657 50.4082C30.6871 50.6003 30.8596 50.8298 30.9833 51.0967C31.107 51.3636 31.1688 51.6566 31.1688 51.9756H29.8309C29.8244 51.8161 29.7951 51.6696 29.743 51.5361C29.6942 51.4027 29.6193 51.2887 29.5184 51.1943C29.4208 51.0967 29.2971 51.0218 29.1473 50.9697C29.0009 50.9144 28.8283 50.8867 28.6298 50.8867C28.4475 50.8867 28.2847 50.9095 28.1415 50.9551C28.0015 50.9974 27.8827 51.0592 27.785 51.1406C27.6874 51.2188 27.6125 51.3132 27.5604 51.4238C27.5116 51.5312 27.4872 51.6484 27.4872 51.7754C27.4872 51.9089 27.5197 52.0293 27.5848 52.1367C27.6532 52.2441 27.7509 52.3418 27.8778 52.4297C28.0048 52.5143 28.1578 52.5924 28.3368 52.6641C28.5191 52.7357 28.7242 52.8024 28.952 52.8643C29.2775 52.9587 29.577 53.0742 29.8505 53.2109C30.1239 53.3477 30.3583 53.5104 30.5536 53.6992C30.7522 53.8848 30.9052 54.098 31.0126 54.3389C31.1233 54.5765 31.1786 54.8418 31.1786 55.1348C31.1786 55.4473 31.1151 55.7256 30.9882 55.9697C30.8645 56.2106 30.6919 56.4157 30.4706 56.585C30.2492 56.751 29.9856 56.8779 29.6796 56.9658C29.3736 57.0505 29.0399 57.0928 28.6786 57.0928C28.454 57.0928 28.2294 57.0716 28.0048 57.0293C27.7834 56.9902 27.5702 56.9284 27.3651 56.8438C27.1633 56.7591 26.9745 56.6533 26.7987 56.5264C26.6229 56.3994 26.4699 56.2513 26.3397 56.082C26.2128 55.9128 26.1119 55.7207 26.037 55.5059C25.9654 55.291 25.9296 55.0534 25.9296 54.793H27.2772C27.2837 55.0078 27.3212 55.1917 27.3895 55.3447C27.4579 55.4977 27.5523 55.623 27.6727 55.7207C27.7964 55.8184 27.9429 55.89 28.1122 55.9355C28.2847 55.9811 28.4735 56.0039 28.6786 56.0039C28.8609 56.0039 29.022 55.9827 29.162 55.9404C29.3052 55.8981 29.4257 55.8395 29.5233 55.7646C29.621 55.6898 29.6958 55.6003 29.7479 55.4961C29.8 55.3887 29.826 55.2715 29.826 55.1445ZM37.3651 51.0088H35.1727V57H33.7958V51.0088H31.6327V49.8906H37.3651V51.0088ZM41.6425 55.5156H39.5087L39.0887 57H37.6434L39.9725 49.8906H41.2177L43.5028 57H42.0575L41.6425 55.5156ZM39.8456 54.3486H41.3202L40.5927 51.7314L39.8456 54.3486ZM46.5643 54.3438H45.5243V57H44.1522V49.8906H46.535C46.9289 49.8906 47.2854 49.9378 47.6044 50.0322C47.9234 50.1234 48.1952 50.2585 48.4198 50.4375C48.6477 50.6165 48.8218 50.8395 48.9423 51.1064C49.066 51.3734 49.1278 51.6826 49.1278 52.0342C49.1278 52.2881 49.0969 52.5176 49.035 52.7227C48.9764 52.9245 48.8902 53.1068 48.7762 53.2695C48.6656 53.429 48.5305 53.569 48.371 53.6895C48.2147 53.8099 48.0389 53.9141 47.8436 54.002L49.3719 56.9365V57H47.9022L46.5643 54.3438ZM45.5243 53.2305H46.5399C46.9273 53.2305 47.2251 53.1328 47.4335 52.9375C47.6451 52.7389 47.7509 52.4688 47.7509 52.127C47.7509 51.7721 47.6483 51.4971 47.4432 51.3018C47.2382 51.1032 46.9354 51.0039 46.535 51.0039H45.5243V53.2305ZM55.0946 54.7734C55.0718 55.1315 54.9937 55.4538 54.8602 55.7402C54.73 56.0267 54.5542 56.2708 54.3329 56.4727C54.1115 56.6745 53.8479 56.8307 53.5419 56.9414C53.2359 57.0488 52.8973 57.1025 52.5262 57.1025C52.1063 57.1025 51.7336 57.026 51.4081 56.873C51.0826 56.7168 50.8091 56.5003 50.5878 56.2236C50.3664 55.9437 50.1971 55.6084 50.08 55.2178C49.9628 54.8271 49.9042 54.3975 49.9042 53.9287V52.9717C49.9042 52.4997 49.966 52.0684 50.0897 51.6777C50.2134 51.2871 50.3892 50.9518 50.6171 50.6719C50.8449 50.3919 51.12 50.1755 51.4423 50.0225C51.7678 49.8662 52.1324 49.7881 52.536 49.7881C52.9266 49.7881 53.2733 49.8434 53.576 49.9541C53.882 50.0648 54.1425 50.2227 54.3573 50.4277C54.5721 50.6328 54.7414 50.8835 54.8651 51.1797C54.9888 51.4759 55.0669 51.8096 55.0995 52.1807H53.7323C53.7193 51.9691 53.6867 51.7835 53.6346 51.624C53.5858 51.4645 53.5126 51.3327 53.4149 51.2285C53.3205 51.1211 53.2001 51.0413 53.0536 50.9893C52.9104 50.9339 52.7378 50.9062 52.536 50.9062C52.3244 50.9062 52.1405 50.9518 51.9843 51.043C51.828 51.1341 51.6978 51.2676 51.5936 51.4434C51.4927 51.6191 51.4178 51.8356 51.369 52.0928C51.3202 52.3467 51.2958 52.6364 51.2958 52.9619V53.9287C51.2958 54.6286 51.3934 55.1462 51.5887 55.4814C51.7873 55.8167 52.0998 55.9844 52.5262 55.9844C52.8843 55.9844 53.1675 55.89 53.3759 55.7012C53.5842 55.5091 53.6997 55.1999 53.7225 54.7734H55.0946ZM61.1249 53.9678C61.1249 54.4235 61.0647 54.8434 60.9442 55.2275C60.8238 55.6117 60.6496 55.9421 60.4218 56.2188C60.1939 56.4954 59.9156 56.7119 59.5868 56.8682C59.2613 57.0212 58.8934 57.0977 58.4833 57.0977C58.0731 57.0977 57.7085 57.0212 57.3895 56.8682C57.0705 56.7119 56.802 56.4954 56.5839 56.2188C56.3658 55.9388 56.1997 55.6084 56.0858 55.2275C55.9719 54.8434 55.9149 54.4235 55.9149 53.9678V52.9326C55.9149 52.4769 55.9719 52.057 56.0858 51.6729C56.1997 51.2887 56.3658 50.9583 56.5839 50.6816C56.802 50.4017 57.0689 50.1836 57.3846 50.0273C57.7037 49.8711 58.0682 49.793 58.4784 49.793C58.8918 49.793 59.2613 49.8711 59.5868 50.0273C59.9156 50.1836 60.1939 50.4017 60.4218 50.6816C60.6496 50.9583 60.8238 51.2887 60.9442 51.6729C61.0647 52.057 61.1249 52.4769 61.1249 52.9326V53.9678ZM59.7333 52.9229C59.7333 52.6331 59.7089 52.3662 59.66 52.1221C59.6145 51.8779 59.5412 51.668 59.4403 51.4922C59.3394 51.3164 59.2092 51.1797 59.0497 51.082C58.8934 50.9811 58.703 50.9307 58.4784 50.9307C58.257 50.9307 58.0715 50.9811 57.9218 51.082C57.772 51.1797 57.6516 51.3164 57.5604 51.4922C57.4693 51.668 57.4042 51.8779 57.3651 52.1221C57.326 52.3662 57.3065 52.6331 57.3065 52.9229V53.9678C57.3065 54.2542 57.326 54.5195 57.3651 54.7637C57.4042 55.0078 57.4693 55.2194 57.5604 55.3984C57.6516 55.5775 57.772 55.7174 57.9218 55.8184C58.0715 55.9193 58.2587 55.9697 58.4833 55.9697C58.7046 55.9697 58.8934 55.9193 59.0497 55.8184C59.2092 55.7174 59.3378 55.5791 59.4354 55.4033C59.5363 55.2243 59.6112 55.0127 59.66 54.7686C59.7089 54.5244 59.7333 54.2575 59.7333 53.9678V52.9229ZM62.4725 49.8906H66.5839V50.999H65.1971V55.8965H66.5839V57H62.4725V55.8965H63.8251V50.999H62.4725V49.8906ZM72.8632 57H71.496L69.5184 52.415V57H68.1366V49.8906H69.5184L71.4813 54.4561L71.4862 49.8906H72.8632V57Z" fill="#3098DC"/>
</svg>
