<svg id="图层_1" data-name="图层 1" xmlns="http://www.w3.org/2000/svg" xmlns:xlink="http://www.w3.org/1999/xlink" viewBox="0 0 512 512"><defs><style>.cls-1{fill:url(#未命名的渐变_2);}.cls-2{fill:#fff;}</style><linearGradient id="未命名的渐变_2" x1="6.5" y1="257.5" x2="506.5" y2="257.5" gradientUnits="userSpaceOnUse"><stop offset="0" stop-color="#2357eb"/><stop offset="1" stop-color="#011e80"/></linearGradient></defs><title>coin</title><circle class="cls-1" cx="256.5" cy="257.5" r="250"/><path class="cls-2" d="M126,405a128.46,128.46,0,0,1-23.53-.48,63.19,63.19,0,0,1-14.4-3.48,35.8,35.8,0,0,1-6.42-3.17,25.22,25.22,0,0,1-3.85-3.15,30.51,30.51,0,0,1-3.22-3.95,31.63,31.63,0,0,1-4.23-9.2,46.31,46.31,0,0,1-.19-21.14c3-14.52,9.82-28.74,18-42A333.21,333.21,0,0,1,116,280.24q8.73-10.51,18.06-20.55l-12.29-8.78-.85-.62c-17.35,18.27-33.39,38-46.14,60.28a184.81,184.81,0,0,0-11.13,22.75,106,106,0,0,0-6.93,25,58.93,58.93,0,0,0,1.91,27,40.63,40.63,0,0,0,6.74,12.38,39.83,39.83,0,0,0,4.83,5.14A35.72,35.72,0,0,0,76.11,407c8.31,4.56,17.12,6,25.59,6.42a126.06,126.06,0,0,0,25-1.54c14.73-2.31,29-7,42.73-12.28l.64-2.23c-4.26,1.28-10.76,3-14.58,3.79A230.09,230.09,0,0,1,126,405Zm94.84-222.87c5.72-4.07,11.56-8,17.44-11.84l2.25-6.81,3.72-11.14q-15.68,9.1-30.72,19.27c-13.57,9.19-26.72,19.17-39.33,29.6-9.66,7.92-19.15,16.09-28.38,24.54l22.33-.18a518,518,0,0,1,52.69-43.46Zm145.23,52.73H294.44c-4.61-15.41-8.71-28.86-13.44-44.22-4.89-16-9.92-32.11-15-48.07l-4.25-13.47-4.52,13.47-8,23.88-7.88,23.9-14.57,44.17-46.61.15L155,234.8l-25.17.24-14.25.15,11.56,8.23q20.55,14.6,41.09,29.09L188.78,287l18.89,13.14q-5.64,19-11.06,38.09l-5.68,20.21-10.37,36.32v.17L366,234.87Zm78.49-123.46C426,96.79,382.79,88.64,273.79,136.61l3.44,10.93S392.13,90.72,432,114.67c62.72,37.67-53.09,130.79-123.64,182.91L309,300c3.86,14.74,7.95,29.38,11.93,44.07l9.1,32.19L302.25,357.7c-12.74-8.32-25.37-16.77-38.21-24.95l-2.15-1.36L260,332.82l-20,15.25-19.91,15.41-19.81,15.57c-6.59,5.21-13.24,10.57-19.75,15.89,7.06-4.55,14.22-9.23,21.2-13.89l20.94-14,20.79-14.2,18.62-12.91c11.74,8.39,23.63,16.57,35.45,24.84l37.68,25.79,10.37,7.11L342,385.59l-12.84-43.8C325,328,320.87,314.16,316.51,300.4c-.05,0,196.35-135.12,128.07-189Z"/></svg>